<svg width="2093" height="2093" viewBox="0 0 2093 2093" fill="none" xmlns="http://www.w3.org/2000/svg">
<path d="M635.1 646.737C635.1 646.737 831.842 319.162 1225.12 447.358C1617.76 575.575 1524.98 1062.3 1524.73 1063.58C1526.45 1054.66 1594.47 1046.17 1601.67 1045.12C1802.32 1015.46 1951.58 1202.09 1966.37 1386.03C1984.75 1614.16 1808.29 1775.74 1607.32 1845.31" stroke="#CCDDE2" stroke-width="5.5" stroke-miterlimit="10"/>
<path d="M1581.41 1952.35C1575.46 1973.26 1571.15 1985.21 1571.15 1985.21H1568.05C1572.95 1974.55 1577.4 1963.6 1581.41 1952.35Z" fill="#4169E1"/>
<path d="M1033.94 1127.1C1033.94 1127.1 1026.87 1170.05 1019.54 1208.94C998.612 1209.17 977.682 1209.34 956.982 1209.5C946.517 1150.61 957.882 1104.48 971.382 1073.73C988.398 1112.53 1014.1 1124.34 1033.94 1127.1Z" fill="#4169E1"/>
<path d="M1377.95 1282.07C1335.39 1259.15 1290.03 1241.88 1243.01 1230.68L1227.61 1228.03C1227.61 1228.03 1216.14 1201.95 1216.07 1201.86C1210.7 1188.2 1201.78 1170.05 1199.02 1155.65C1195.65 1138.64 1194.83 1121.22 1196.59 1103.97C1199.6 1078.36 1211.53 1024.17 1233.09 1007.09C1251.07 992.94 1258.48 995.912 1268.67 973.789C1276 958.008 1278.97 931.49 1264.74 919.853C1248.96 907.085 1242.22 913.574 1223.34 915.541C1151.59 922.657 1110.59 871.023 1084.22 811.351C1080.03 801.661 1075.68 791.426 1068.83 783.18C1060.98 773.677 1050.12 771.543 1041.23 763.861C1037.44 760.554 1034.84 755.154 1036.66 750.466C1037.74 748.226 1039.29 746.253 1041.23 744.689C1058.04 729.203 1078.22 717.845 1100.19 711.515C1134.92 701.471 1171.63 700.327 1206.93 708.187C1243.77 720.39 1276.88 743.496 1299.17 778.805C1329.91 827.593 1337.32 878.202 1320.1 928.643C1302.45 980.298 1282.76 1040.97 1315.91 1090.68C1360.05 1156.72 1386.65 1203.16 1377.95 1282.07Z" fill="#4169E1"/>
<path d="M1019.63 1208.94C998.696 1209.17 977.766 1209.34 957.066 1209.5C799.338 1210.32 648.37 1208.12 490.139 1236.5" stroke="black" stroke-width="5.5" stroke-miterlimit="10"/>
<path d="M1225.12 1226.5C1231.12 1227.82 1237.07 1229.2 1243.01 1230.68C1266.18 1236.28 1289 1243.27 1311.33 1251.61C1334.24 1260.14 1356.5 1270.31 1377.95 1282.05C1377.97 1282.03 1378 1282.01 1378.03 1282.01C1378.06 1282.01 1378.09 1282.03 1378.11 1282.05C1411.85 1300.33 1443.03 1322.97 1470.86 1349.4C1494.12 1372.06 1514.23 1397.75 1530.65 1425.77C1530.8 1425.88 1530.9 1426.02 1530.97 1426.19C1544.29 1448.56 1555.86 1471.92 1565.56 1496.08C1594.53 1567.43 1610.96 1649.58 1613.47 1731.33C1615.75 1808.54 1605.58 1885.42 1581.51 1952.35C1577.51 1963.6 1573.06 1974.55 1568.16 1985.21C1567.85 1986.03 1567.43 1986.76 1567.11 1987.58" stroke="black" stroke-width="5.5" stroke-miterlimit="10"/>
<path d="M1316.06 1986.53C1316.06 1986.53 1316.06 1986.36 1316.06 1986.28C1316.19 1985.93 1316.3 1985.57 1316.37 1985.21" stroke="black" stroke-width="5.5" stroke-miterlimit="10"/>
<path d="M1260.82 1515.86C1260.82 1515.86 1306.37 1537.98 1336.3 1607.05C1351.35 1641.77 1362.5 1688.46 1361.85 1750.21C1361.85 1750.21 1361.85 1750.21 1361.85 1750.38C1361.52 1789.75 1356.33 1835.21 1344.27 1887.59V1887.89" stroke="black" stroke-width="5.5" stroke-miterlimit="10"/>
<path d="M398.905 639.014C406.942 608.603 419.835 577.249 429.525 564.063C444.762 543.552 464.646 524.003 490.222 525.762C506.652 526.829 522.789 535.913 523.522 553.912C524.213 573.44 503.618 595.124 497.004 613.479C490.725 631.186 487.857 651.802 491.164 670.43C494.471 689.057 511.194 703.604 529.236 707.601C536.079 709.403 543.358 708.417 549.475 704.86C567.14 693.683 563.435 663.921 562.724 646.36C561.887 626.665 561.908 604.396 578.714 590.917C591.063 581.017 609.795 587.589 618.9 598.472C634.723 617.309 635.498 645.67 636.293 668.86C638.658 738.724 626.246 805.7 585.559 864.514C564.629 894.883 543.071 922.134 534.594 959.389C508.222 1075.17 505.292 1155.44 490.139 1273.03" stroke="black" stroke-width="5.5" stroke-miterlimit="10"/>
<path d="M809.614 1988.35C728.741 1758.5 767.043 1507.38 767.043 1507.38L332.62 1521.15C314.123 1521.74 295.717 1518.35 278.64 1511.22C261.562 1504.09 246.211 1493.39 233.621 1479.82C221.031 1466.26 211.493 1450.16 205.652 1432.6C199.81 1415.04 197.8 1396.43 199.756 1378.03L306.164 989.989L329.187 907.211C336.529 881.164 334.847 853.4 324.415 828.43L313.573 802.561C313.573 802.561 293.92 762.48 337.978 766.247C361.67 768.34 385.175 778.408 405.058 791.049C420.672 800.991 444.491 820.226 437.123 841.553C428.416 866.669 394.279 872.948 374.228 858.821" stroke="black" stroke-width="5.5" stroke-miterlimit="10"/>
<path d="M323.327 766.038C323.327 766.038 286.113 682.318 388.21 703.981C490.306 725.643 514.753 837.2 436.83 824.642" stroke="black" stroke-width="5.5" stroke-miterlimit="10"/>
<path d="M356.982 699.188C356.982 699.188 324.331 659.525 373.14 640.584C421.949 621.642 599.184 711.097 485.492 799.212" stroke="black" stroke-width="5.5" stroke-miterlimit="10"/>
<path d="M1063.24 1125.22C1053.77 1127.82 1043.86 1128.46 1034.13 1127.1C1014.2 1124.34 988.503 1112.45 971.571 1073.73C968.054 1065.82 965.197 1057.63 963.031 1049.24C954.408 1017.2 950.641 972.617 955.685 910.455C956.668 898.504 958.134 886.365 960.164 874.246C963.524 853.165 968.943 832.464 976.343 812.44C976.343 812.44 976.343 812.272 976.51 812.189C994.97 763.38 1027.43 722.19 1082.02 706.346C1122.95 694.537 1166.48 695.164 1207.05 708.146C1243.89 720.348 1277 743.455 1299.29 778.763C1330.04 827.551 1337.45 878.16 1320.22 928.601C1302.58 980.257 1282.88 1040.93 1316.04 1090.64C1360.12 1156.78 1386.72 1203.22 1378.18 1282.13" stroke="black" stroke-width="5.5" stroke-miterlimit="10"/>
<path d="M940.322 1211.95C924.29 1135.08 945.931 1079.03 962.926 1049.24" stroke="black" stroke-width="5.5" stroke-miterlimit="10"/>
<path d="M960.164 874.162C960.164 874.162 995.263 837.472 1035.93 895.427" stroke="black" stroke-width="5.5" stroke-miterlimit="10"/>
<path d="M1049.53 1058.91C1064.37 1068.52 1084.47 1062.55 1095.39 1047.76C1107.26 1031.7 1112.01 1010.27 1114.59 990.826C1114.75 989.424 1114.94 988.043 1115.07 986.64C1096.96 1015.08 1061.82 1021.91 1030.89 1024.88C1032.06 1034.18 1035.52 1043.05 1040.95 1050.69C1043.28 1053.94 1046.19 1056.72 1049.53 1058.91Z" stroke="black" stroke-width="5.5" stroke-linecap="round" stroke-linejoin="round"/>
<path d="M1210.72 1186.96L1210.63 1186.88" stroke="black" stroke-width="5.5" stroke-miterlimit="10"/>
<path d="M1072.64 862.881C1072.64 862.881 1084.57 843.563 1125.34 857.795C1166.12 872.027 1166.6 895.281 1166.6 895.281" stroke="black" stroke-width="5.5" stroke-miterlimit="10"/>
<path d="M979.963 910.915C979.963 910.915 998.8 901.392 1013.56 910.915" stroke="black" stroke-width="5.5" stroke-miterlimit="10"/>
<path d="M1081.47 919.685C1081.47 919.685 1100.31 910.162 1114.96 919.685" stroke="black" stroke-width="5.5" stroke-miterlimit="10"/>
<path d="M1033.94 1127.1C1033.94 1127.1 1026.87 1170.05 1019.54 1208.94C1018.47 1214.46 1017.45 1219.9 1016.53 1225.28C1011.74 1251.47 1007.9 1274.74 1007.74 1281.8C1006.52 1340.4 1061.93 1374.2 1115.44 1373.64C1190.54 1372.82 1234.45 1302.96 1227.38 1232.99C1222.75 1220.22 1218.02 1207.45 1213.4 1194.68C1207.45 1178.32 1199.73 1162.39 1196.38 1145.14C1193.42 1128.15 1193.1 1110.81 1195.42 1093.72C1198.43 1068.18 1203.39 1030.11 1224.95 1013.03C1242.93 998.884 1261.7 989.591 1271.96 967.468C1279.28 951.687 1278.95 931.364 1264.72 919.727C1248.94 906.96 1223.97 908.508 1205.09 910.371C1083.32 922.825 1063.06 799.568 1030.11 782.259C1003.11 768.005 982.852 799.986 976.51 811.854L976.259 812.356C976.249 812.475 976.197 812.586 976.112 812.67C974.961 814.763 974.396 816.165 974.396 816.165" stroke="black" stroke-width="5.5" stroke-miterlimit="10"/>
<path d="M1030.82 925.106C1030.82 925.106 1018.1 966.757 1019.08 972.994C1020.07 979.231 1034.9 974.878 1034.9 974.878" stroke="black" stroke-width="5.5" stroke-miterlimit="10"/>
<path d="M1130.54 969.062C1150.04 949.602 1149.68 917.637 1129.75 897.668C1109.81 877.699 1077.85 877.286 1058.35 896.747C1038.86 916.208 1039.21 948.172 1059.15 968.142C1079.08 988.111 1111.05 988.523 1130.54 969.062Z" stroke="black" stroke-width="5.5" stroke-miterlimit="10"/>
<path d="M1003.32 953.596C1022.81 934.135 1022.45 902.171 1002.52 882.201C982.584 862.232 950.621 861.82 931.126 881.281C911.631 900.741 911.987 932.706 931.922 952.675C951.856 972.645 983.82 973.057 1003.32 953.596Z" stroke="black" stroke-width="5.5" stroke-miterlimit="10"/>
<path d="M966.108 878.662C971.665 878.637 977.166 879.777 982.255 882.008C987.345 884.239 991.91 887.512 995.657 891.616C999.404 895.719 1002.25 900.563 1004.01 905.834C1005.77 911.105 1006.4 916.686 1005.88 922.218C1004.99 931.52 1000.66 940.155 993.74 946.429C986.816 952.703 977.796 956.161 968.452 956.124C962.895 956.15 957.395 955.01 952.305 952.779C947.216 950.548 942.651 947.275 938.904 943.171C935.157 939.067 932.312 934.224 930.552 928.953C928.792 923.682 928.156 918.101 928.685 912.569C929.568 903.267 933.896 894.631 940.821 888.358C947.745 882.084 956.765 878.626 966.108 878.662ZM966.108 872.886C955.341 872.859 944.952 876.856 936.98 884.093C929.007 891.33 924.026 901.284 923.013 912.004C921.935 923.836 925.501 935.624 932.958 944.874C940.415 954.123 951.177 960.11 962.969 961.566C964.775 961.781 966.592 961.893 968.411 961.901C979.189 961.944 989.593 957.954 997.579 950.715C1005.56 943.477 1010.55 933.513 1011.57 922.783C1012.65 910.951 1009.08 899.163 1001.62 889.913C994.167 880.663 983.404 874.677 971.613 873.221C969.807 873.005 967.99 872.894 966.171 872.886H966.108Z" fill="white"/>
<path d="M1044.18 926.759L1017.47 923.515" stroke="black" stroke-width="5.5" stroke-miterlimit="10"/>
<path d="M1126.44 964.959C1143.73 947.704 1143.42 919.363 1125.75 901.66C1108.07 883.957 1079.73 883.594 1062.45 900.85C1045.16 918.106 1045.47 946.446 1063.15 964.149C1080.82 981.853 1109.16 982.215 1126.44 964.959Z" fill="#4169E1"/>
<path d="M999.234 949.508C1016.53 932.244 1016.22 903.89 998.534 886.179C980.854 868.467 952.501 868.105 935.207 885.369C917.913 902.633 918.226 930.986 935.907 948.698C953.587 966.409 981.94 966.772 999.234 949.508Z" fill="#4169E1"/>
<path d="M559.124 222.193C498.427 225.291 448.195 273.932 443.36 334.461C441.918 351.35 444.009 368.354 449.501 384.39C454.993 400.425 463.765 415.141 475.258 427.6C483.732 436.923 493.62 444.854 504.56 451.104C507.414 452.752 510.111 454.657 512.618 456.797C528.998 465.067 547.086 469.39 565.436 469.419C583.785 469.448 601.887 465.183 618.293 456.965C620.679 454.749 623.329 452.837 626.184 451.272C637.571 444.76 647.862 436.496 656.679 426.784C656.903 426.468 657.147 426.167 657.411 425.884C673.403 407.783 683.695 385.363 686.995 361.436C690.295 337.509 686.456 313.14 675.962 291.386C665.467 269.632 648.782 251.46 628.001 239.151C607.219 226.842 583.266 220.942 559.145 222.193H559.124ZM635.1 413.933C634.869 414.107 634.676 414.328 634.535 414.581C627.703 422.052 619.744 428.408 610.947 433.418C608.757 434.619 606.731 436.096 604.919 437.814C592.268 444.146 578.315 447.443 564.168 447.443C550.021 447.443 536.069 444.146 523.418 437.814C521.458 436.142 519.357 434.644 517.139 433.335C500.233 423.612 486.75 408.897 478.538 391.208C470.326 373.52 467.788 353.723 471.272 334.535C474.756 315.347 484.091 297.707 497.997 284.034C511.903 270.361 529.699 261.325 548.943 258.166C568.188 255.007 587.938 257.88 605.486 266.389C623.033 274.899 637.518 288.629 646.953 305.697C656.389 322.764 660.313 342.333 658.187 361.719C656.061 381.104 647.989 399.357 635.079 413.974L635.1 413.933Z" fill="#4169E1"/>
<path d="M618.251 456.986C613.434 461.358 609.588 466.693 606.964 472.645C604.339 478.598 602.993 485.035 603.014 491.541V497.15C603.014 516.741 588.824 534.301 569.526 536.268C564.311 536.803 559.042 536.24 554.058 534.615C549.074 532.991 544.485 530.34 540.587 526.835C536.689 523.329 533.569 519.046 531.426 514.262C529.284 509.477 528.167 504.297 528.147 499.055V491.541C528.136 484.999 526.756 478.532 524.096 472.556C521.436 466.579 517.554 461.226 512.701 456.839C529.082 465.085 547.162 469.392 565.501 469.417C583.84 469.443 601.931 465.186 618.335 456.986H618.251Z" fill="#4169E1"/>
<path d="M618.251 456.986C613.434 461.358 609.588 466.693 606.964 472.645C604.339 478.598 602.993 485.036 603.014 491.541V497.15C603.014 516.741 588.824 534.301 569.526 536.268C564.311 536.803 559.042 536.24 554.058 534.615C549.074 532.991 544.485 530.34 540.587 526.835C536.689 523.329 533.569 519.046 531.426 514.262C529.284 509.477 528.167 504.297 528.147 499.055V491.541C528.136 484.999 526.756 478.532 524.096 472.556C521.436 466.579 517.554 461.226 512.701 456.839C529.082 465.085 547.162 469.392 565.501 469.417C583.84 469.443 601.931 465.186 618.335 456.986H618.251Z" stroke="black" stroke-width="5.5" stroke-miterlimit="10"/>
<path d="M688.137 344.654C688.2 374.602 677.249 403.528 657.37 425.925C657.121 426.196 656.89 426.483 656.679 426.784C647.848 436.513 637.535 444.784 626.121 451.293C623.286 452.878 620.645 454.789 618.251 456.986C601.848 465.186 583.756 469.443 565.417 469.417C547.078 469.392 528.999 465.085 512.618 456.839C510.116 454.665 507.41 452.738 504.539 451.083C484.323 439.462 467.833 422.325 456.999 401.676C446.165 381.028 441.435 357.721 443.36 334.482C445.909 302.9 460.587 273.532 484.316 252.536C508.046 231.54 538.983 220.547 570.64 221.862C602.297 223.178 632.216 236.7 654.121 259.592C676.026 282.485 688.217 312.97 688.137 344.654V344.654Z" stroke="black" stroke-width="5.5" stroke-miterlimit="10"/>
<path d="M530.89 469.418L502.802 376.321L495.769 349.95C495.769 349.157 496.03 348.386 496.513 347.757C496.995 347.128 497.672 346.676 498.437 346.471C499.203 346.266 500.015 346.319 500.748 346.622C501.48 346.926 502.092 347.463 502.488 348.15C508.767 359.243 518.687 373.161 528.566 372.805C544.955 372.219 531.497 322.469 518.101 327.68C504.706 332.892 530.387 365.773 556.843 369.875C583.298 373.977 576.056 329.501 556.843 327.743C537.629 325.985 550.878 363.449 585.412 369.875C619.947 376.3 613.5 338.271 604.145 330.673C594.789 323.076 597.698 366.945 619.382 373.977C626.247 376.217 631.709 371.424 634.388 365.459C635.937 361.984 635.142 344.403 631.961 349.824C625.472 360.938 624.195 374.814 621.014 387.079C614.254 413.033 603.914 437.876 597.991 464.06" stroke="black" stroke-width="5.5" stroke-miterlimit="10"/>
<path d="M346.287 1988.35C361.106 1981.4 1727.67 1988.35 1727.67 1988.35" stroke="black" stroke-width="5.5" stroke-miterlimit="10"/>
<path d="M565.445 178.386L564.231 104.65" stroke="black" stroke-width="7.34" stroke-miterlimit="10"/>
<path d="M424.816 246.974L373.768 193.749" stroke="black" stroke-width="7.34" stroke-miterlimit="10"/>
<path d="M706.597 250.281L758.775 198.165" stroke="black" stroke-width="7.34" stroke-miterlimit="10"/>
<path d="M1488.83 1887.76L1490.61 1887.93C1489.65 1888.1 1488.52 1888.26 1487.54 1888.49H1486.03L1344.31 1887.76H1328.3L1090.2 1886.55C1089.3 1886.55 1088.4 1886.55 1087.5 1886.55C1087.29 1886.59 1087.07 1886.59 1086.85 1886.55C1086.85 1886.55 1086.85 1886.55 1086.71 1886.55C1085.21 1886.56 1083.71 1886.45 1082.23 1886.23C1094.96 1884.79 1107.03 1879.78 1117.03 1871.77C1118.6 1870.45 1120.22 1869.2 1121.68 1867.77L1121.85 1867.6C1122.19 1867.33 1122.51 1867.03 1122.81 1866.7C1134.91 1854.74 1142.16 1838.72 1143.15 1821.73C1143.15 1820.91 1143.15 1820.01 1143.15 1819.19V1817.9C1143.08 1802.03 1137.55 1786.68 1127.49 1774.42C1117.43 1762.15 1103.46 1753.72 1087.92 1750.54C1087.9 1750.52 1087.87 1750.51 1087.84 1750.51C1087.81 1750.51 1087.78 1750.52 1087.75 1750.54C1086.2 1750.15 1084.43 1749.89 1082.79 1749.64L1086.29 1749.41C1086.86 1749.37 1087.43 1749.37 1088 1749.41C1088.97 1749.41 1089.87 1749.41 1090.77 1749.41L1291.93 1750.46L1328.95 1750.63L1361.81 1750.79H1377.11H1378.97C1379.22 1750.79 1379.37 1750.79 1379.62 1750.79C1396.59 1752.5 1412.32 1760.44 1423.77 1773.08C1435.22 1785.71 1441.58 1802.14 1441.62 1819.19C1441.61 1822.44 1441.37 1825.68 1440.88 1828.88C1438.51 1844.82 1430.63 1859.42 1418.61 1870.15C1406.6 1880.88 1391.2 1887.06 1375.1 1887.61C1374.37 1887.61 1373.64 1887.61 1373.01 1887.61H1492.52C1490.78 1887.68 1489.65 1887.68 1488.83 1887.76Z" fill="white"/>
<path d="M1168.79 1970.94C1173.31 1975.48 1178.69 1979.09 1184.61 1981.54C1190.53 1984 1196.88 1985.26 1203.29 1985.25H1086.54C1064.19 1985.25 1052.05 1979.81 1043.19 1970.94C1034.05 1961.78 1028.9 1949.38 1028.88 1936.44C1028.88 1909.69 1050.83 1887.72 1086.54 1887.72H1203.29C1193.64 1887.7 1184.2 1890.55 1176.18 1895.91C1168.15 1901.26 1161.89 1908.87 1158.2 1917.79C1154.5 1926.7 1153.54 1936.51 1155.42 1945.97C1157.31 1955.43 1161.96 1964.12 1168.79 1970.94Z" fill="#D7E8F0"/>
<path d="M1489.32 1887.91C1489.41 1887.89 1489.5 1887.89 1489.59 1887.93C1489.5 1887.93 1489.41 1887.92 1489.32 1887.91C1489 1887.89 1488.68 1887.84 1488.37 1887.76H1375.1C1389.83 1886.97 1403.91 1881.46 1415.27 1872.04C1416.98 1870.64 1418.61 1869.16 1420.16 1867.58C1421.46 1866.32 1422.68 1864.99 1423.83 1863.59C1424.7 1862.61 1425.51 1861.59 1426.25 1860.51C1426.74 1859.92 1427.15 1859.36 1427.55 1858.79C1428.33 1857.76 1429.03 1856.66 1429.64 1855.53C1430.6 1854.2 1431.44 1852.8 1432.18 1851.34C1432.96 1849.95 1433.66 1848.51 1434.27 1847.03C1434.58 1846.38 1434.83 1845.65 1435.25 1844.94C1435.82 1843.47 1436.3 1842.01 1436.78 1840.54L1436.78 1840.54C1437.45 1838.45 1438.1 1836.23 1438.58 1834.05C1438.87 1832.88 1439.09 1831.68 1439.23 1830.47C1439.32 1830.18 1439.38 1829.88 1439.4 1829.57C1439.49 1829.34 1439.55 1829.09 1439.57 1828.84C1439.57 1828.03 1439.8 1827.29 1439.88 1826.48V1826C1440.19 1823.73 1440.33 1821.44 1440.3 1819.15C1440.33 1818.1 1440.27 1817.04 1440.13 1815.99V1815.26C1440.13 1814.22 1440.05 1813.19 1439.88 1812.16C1439.33 1806.51 1438.04 1800.96 1436.05 1795.65C1434.95 1792.46 1433.55 1789.38 1431.86 1786.46C1430.33 1783.52 1428.53 1780.71 1426.5 1778.09C1425.98 1777.32 1425.41 1776.59 1424.79 1775.89C1424.54 1775.64 1424.31 1775.3 1423.97 1774.99C1422.89 1773.56 1421.69 1772.23 1420.39 1770.99C1419.43 1770.03 1418.3 1769.05 1417.32 1768C1416.33 1766.95 1414.7 1765.72 1413.32 1764.73C1411.94 1763.75 1411.04 1763.04 1409.82 1762.22C1408.02 1760.91 1406.12 1759.74 1404.13 1758.73C1402.28 1757.65 1400.35 1756.72 1398.35 1755.94C1396.04 1754.95 1393.68 1754.09 1391.28 1753.35C1390.46 1753.04 1389.61 1752.83 1388.75 1752.7C1386.51 1752.06 1384.23 1751.57 1381.92 1751.23C1380.77 1750.98 1379.64 1750.9 1378.43 1750.75H1378.26C1378.1 1750.79 1377.94 1750.79 1377.78 1750.75H1378.26H1378.43C1379.64 1750.9 1380.77 1750.98 1381.92 1751.23C1384.23 1751.57 1386.51 1752.06 1388.75 1752.7C1389.61 1752.83 1390.46 1753.04 1391.28 1753.35C1393.68 1754.09 1396.04 1754.95 1398.35 1755.94C1400.35 1756.72 1402.28 1757.65 1404.13 1758.73C1406.12 1759.74 1408.02 1760.91 1409.82 1762.22C1411.04 1763.04 1411.94 1763.75 1413.32 1764.73C1414.7 1765.72 1416.33 1766.95 1417.32 1768C1418.3 1769.05 1419.43 1770.03 1420.39 1770.99C1421.69 1772.23 1422.89 1773.56 1423.97 1774.99C1424.31 1775.3 1424.54 1775.64 1424.79 1775.89C1425.41 1776.59 1425.98 1777.32 1426.5 1778.09C1428.53 1780.71 1430.33 1783.52 1431.86 1786.46C1433.55 1789.38 1434.95 1792.46 1436.05 1795.65C1438.04 1800.96 1439.33 1806.51 1439.88 1812.16C1440.05 1813.19 1440.13 1814.22 1440.13 1815.26V1815.99C1440.27 1817.04 1440.33 1818.1 1440.3 1819.15C1440.33 1821.44 1440.19 1823.73 1439.88 1826V1826.48C1439.8 1827.29 1439.57 1828.03 1439.57 1828.84C1439.55 1829.09 1439.49 1829.34 1439.4 1829.57C1439.38 1829.88 1439.32 1830.18 1439.23 1830.47C1439.09 1831.68 1438.87 1832.88 1438.58 1834.05C1438.1 1836.23 1437.45 1838.45 1436.78 1840.54L1436.78 1840.54C1436.3 1842.01 1435.82 1843.47 1435.25 1844.94C1434.83 1845.65 1434.58 1846.38 1434.27 1847.03C1433.66 1848.51 1432.96 1849.95 1432.18 1851.34C1431.44 1852.8 1430.6 1854.2 1429.64 1855.53C1429.03 1856.66 1428.33 1857.76 1427.55 1858.79C1427.15 1859.36 1426.74 1859.92 1426.25 1860.51C1425.51 1861.59 1424.7 1862.61 1423.83 1863.59C1422.68 1864.99 1421.46 1866.32 1420.16 1867.58C1418.61 1869.16 1416.98 1870.64 1415.27 1872.04C1403.91 1881.46 1389.83 1886.97 1375.1 1887.76H1488.37C1488.64 1887.72 1488.92 1887.72 1489.19 1887.76H1488.37C1488.68 1887.84 1489 1887.89 1489.32 1887.91Z" fill="#4169E1"/>
<path d="M1554.72 1820.18C1554.72 1821.48 1554.72 1822.86 1554.56 1824.15C1554.39 1826.35 1554.16 1828.47 1553.82 1830.58C1553.66 1831.71 1553.42 1832.86 1553.17 1833.99C1552.69 1836.08 1552.13 1838.39 1551.48 1840.5C1550.74 1842.83 1549.87 1845.12 1548.86 1847.34C1548.54 1848.22 1548.13 1849.06 1547.65 1849.86C1547.65 1850.11 1547.48 1850.27 1547.31 1850.51C1546.83 1851.57 1546.27 1852.6 1545.7 1853.6C1544.8 1855.24 1543.82 1856.85 1542.77 1858.4C1541.54 1860.28 1540.16 1861.97 1538.77 1863.69C1537.37 1865.4 1535.87 1867.02 1534.29 1868.57C1532.64 1870.25 1530.88 1871.83 1529.02 1873.3L1526.93 1874.99C1524.55 1876.79 1522.04 1878.42 1519.43 1879.87C1518.22 1880.52 1516.92 1881.19 1515.63 1881.84C1515.5 1881.93 1515.36 1881.98 1515.21 1881.98C1513.74 1882.72 1512.28 1883.3 1510.81 1883.87C1509.35 1884.43 1507.88 1885 1506.35 1885.48C1504.8 1885.9 1503.26 1886.38 1501.71 1886.71L1500.43 1886.94C1499.22 1887.22 1498 1887.45 1496.77 1887.63C1494.58 1888.01 1492.37 1888.27 1490.15 1888.41C1488.8 1888.55 1487.45 1888.61 1486.09 1888.58C1486.09 1888.58 1485.84 1888.58 1485.76 1888.58L1344.27 1887.89L1310.93 1887.72L1088.7 1886.59C1087.88 1886.57 1087.06 1886.52 1086.25 1886.42C1084.38 1886.42 1082.58 1886.25 1080.72 1886.11C1096.82 1884.19 1111.74 1876.68 1122.87 1864.89C1134 1853.1 1140.65 1837.78 1141.65 1821.6C1141.65 1820.78 1141.65 1819.88 1141.65 1818.98V1818.11C1141.67 1802.16 1136.17 1786.7 1126.09 1774.35C1116 1761.99 1101.96 1753.51 1086.33 1750.33C1084.7 1750 1083.06 1749.77 1081.37 1749.52C1082.99 1749.33 1084.62 1749.23 1086.25 1749.2C1086.82 1749.16 1087.39 1749.16 1087.96 1749.2H1089.34L1311.58 1750.33L1361.81 1750.59H1378.24H1379.62L1486.37 1751.15C1489.87 1751.16 1493.37 1751.44 1496.83 1751.97V1751.97C1505.67 1753.42 1514.15 1756.57 1521.8 1761.24C1522.78 1761.8 1523.66 1762.45 1524.56 1763.02C1527.27 1764.87 1529.86 1766.92 1532.29 1769.13C1533.1 1769.86 1533.83 1770.59 1534.65 1771.41C1540.85 1777.7 1545.82 1785.09 1549.3 1793.2L1550.54 1796.38C1550.95 1797.41 1551.3 1798.47 1551.58 1799.54C1553.67 1806.22 1554.73 1813.18 1554.72 1820.18V1820.18Z" stroke="black" stroke-width="5.5" stroke-linecap="square" stroke-linejoin="round"/>
<path d="M1440.19 1818.94C1440.21 1821.23 1440.1 1823.51 1439.86 1825.79C1439.86 1825.95 1439.86 1826.1 1439.86 1826.27C1439.69 1827.34 1439.54 1828.36 1439.38 1829.37C1439.36 1829.67 1439.3 1829.97 1439.21 1830.27C1439.07 1831.47 1438.85 1832.67 1438.56 1833.84C1438.08 1835.94 1437.43 1838.22 1436.76 1840.33C1436.28 1841.8 1435.8 1843.26 1435.23 1844.73C1434.81 1845.46 1434.56 1846.19 1434.25 1846.82C1433.64 1848.3 1432.94 1849.74 1432.16 1851.13C1431.42 1852.59 1430.58 1853.99 1429.62 1855.32C1429 1856.46 1428.3 1857.55 1427.53 1858.58C1427.13 1859.15 1426.71 1859.71 1426.23 1860.3C1425.49 1861.38 1424.68 1862.4 1423.8 1863.38C1422.66 1864.78 1421.44 1866.11 1420.14 1867.37C1418.58 1868.91 1416.95 1870.37 1415.24 1871.75C1403.92 1881.22 1389.84 1886.78 1375.1 1887.61C1374.37 1887.61 1373.64 1887.61 1373.01 1887.61H1089.01C1086.41 1887.61 1083.73 1887.47 1081.03 1887.22C1082.79 1887.01 1084.53 1886.71 1086.25 1886.32C1086.38 1886.36 1086.53 1886.36 1086.66 1886.32C1086.66 1886.32 1086.81 1886.32 1086.81 1886.32C1100.01 1883.56 1112.11 1877.02 1121.64 1867.48L1121.81 1867.31C1133.92 1855.07 1141 1838.73 1141.65 1821.52C1141.65 1820.7 1141.65 1819.8 1141.65 1818.9V1818.82C1141.52 1802.04 1135.29 1785.89 1124.12 1773.37C1112.95 1760.85 1097.6 1752.83 1080.95 1750.79C1082.75 1750.56 1084.53 1750.48 1086.33 1750.4C1086.79 1750.31 1087.25 1750.31 1087.71 1750.4C1087.73 1750.38 1087.76 1750.36 1087.79 1750.36C1087.83 1750.36 1087.86 1750.38 1087.88 1750.4C1088.23 1750.36 1088.58 1750.36 1088.93 1750.4H1371.44C1373.41 1750.4 1375.27 1750.4 1377.15 1750.65H1377.8C1377.96 1750.69 1378.12 1750.69 1378.28 1750.65H1378.62L1381.94 1751.13C1384.25 1751.47 1386.53 1751.96 1388.77 1752.59C1389.58 1752.76 1390.48 1752.99 1391.3 1753.24C1393.7 1753.98 1396.06 1754.85 1398.37 1755.84C1400.32 1756.65 1402.29 1757.64 1404.15 1758.62C1406.12 1759.67 1408.02 1760.84 1409.84 1762.12C1411.06 1762.93 1412.21 1763.73 1413.34 1764.63C1414.47 1765.53 1416.02 1766.72 1417.34 1767.89C1418.66 1769.07 1419.43 1769.99 1420.41 1770.89C1421.65 1772.21 1422.86 1773.5 1423.99 1774.88C1424.33 1775.2 1424.56 1775.53 1424.81 1775.78L1426.53 1777.98C1428.49 1780.66 1430.28 1783.45 1431.88 1786.35C1433.46 1789.33 1434.86 1792.4 1436.07 1795.54C1437.99 1800.88 1439.28 1806.42 1439.9 1812.06C1439.9 1813.12 1440.07 1814.15 1440.15 1815.15V1815.89C1440.19 1816.83 1440.19 1817.9 1440.19 1818.94Z" stroke="black" stroke-width="5.5" stroke-linecap="square" stroke-linejoin="round"/>
<path d="M1492.41 1985.21H1086.5C1077.45 1985.45 1068.43 1984.17 1059.81 1981.4C1058.1 1980.75 1056.48 1980.1 1054.93 1979.31C1053.39 1978.49 1052 1977.68 1050.62 1976.86C1049.24 1976.04 1048.03 1975 1046.79 1974.01C1045.58 1972.95 1044.45 1971.92 1043.38 1970.83C1037.81 1965.27 1033.68 1958.43 1031.35 1950.91C1029.86 1946.22 1029.12 1941.34 1029.15 1936.42C1029.13 1934.52 1029.25 1932.62 1029.48 1930.73C1029.79 1928.08 1030.36 1925.46 1031.18 1922.92C1032.31 1918.91 1034.07 1915.09 1036.39 1911.62C1037.72 1909.35 1039.3 1907.25 1041.1 1905.34C1042.21 1904.11 1043.38 1902.93 1044.62 1901.83C1054.54 1892.97 1068.94 1887.51 1086.75 1887.51H1492.41C1490.78 1887.51 1489.65 1887.51 1488.83 1887.51C1488.56 1887.47 1488.29 1887.47 1488.02 1887.51C1487.2 1887.51 1487.37 1887.51 1487.77 1887.51C1487.79 1887.53 1487.82 1887.54 1487.85 1887.54C1487.88 1887.54 1487.91 1887.53 1487.93 1887.51C1488.12 1887.55 1488.31 1887.55 1488.5 1887.51C1488.67 1887.51 1488.75 1887.51 1488.92 1887.51C1488.02 1887.68 1487.12 1887.76 1486.22 1887.99H1486.03C1486.03 1887.99 1485.78 1887.99 1485.69 1887.99C1474.6 1890.2 1464.61 1896.17 1457.42 1904.91C1450.23 1913.64 1446.28 1924.59 1446.24 1935.9C1446.31 1947.83 1450.71 1959.33 1458.63 1968.25C1466.54 1977.17 1477.44 1982.91 1489.27 1984.39C1487.29 1985.15 1485.42 1985.21 1492.41 1985.21Z" stroke="black" stroke-width="5.5" stroke-linecap="square" stroke-linejoin="round"/>
<path d="M1489.15 1984.98C1487.29 1985.15 1485.42 1985.21 1483.54 1985.21H1203.22C1196.83 1985.21 1190.5 1983.94 1184.59 1981.48C1178.69 1979.03 1173.33 1975.43 1168.81 1970.89V1970.89C1163.24 1965.33 1159.11 1958.49 1156.78 1950.97C1155.33 1946.28 1154.63 1941.39 1154.69 1936.49C1154.71 1923.56 1159.85 1911.17 1168.98 1902.03C1178.11 1892.88 1190.49 1887.72 1203.41 1887.68H1483.54C1484.92 1887.68 1486.39 1887.68 1487.73 1887.84C1487.97 1887.88 1488.22 1887.88 1488.46 1887.84C1488.63 1887.84 1488.71 1887.84 1488.88 1887.84C1487.98 1888.01 1487.08 1888.1 1486.18 1888.33H1486.03C1486.03 1888.33 1485.78 1888.33 1485.69 1888.33C1474.6 1890.53 1464.61 1896.51 1457.42 1905.24C1450.23 1913.97 1446.28 1924.92 1446.24 1936.23C1446.31 1948.16 1450.71 1959.66 1458.63 1968.58C1466.54 1977.51 1477.44 1983.25 1489.27 1984.73L1489.15 1984.98Z" stroke="black" stroke-width="5.5" stroke-linecap="square" stroke-linejoin="round"/>
<path d="M1154.5 1936.49C1154.5 1949.41 1159.63 1961.8 1168.77 1970.94C1177.91 1980.08 1190.3 1985.21 1203.22 1985.21H1086.5C1064.21 1985.21 1052 1979.77 1043.13 1970.89C1038.61 1966.38 1035.02 1961.02 1032.58 1955.11C1030.14 1949.21 1028.89 1942.88 1028.9 1936.49C1028.9 1909.65 1050.79 1887.68 1086.5 1887.68H1203.22C1190.3 1887.72 1177.92 1892.88 1168.79 1902.03C1159.66 1911.17 1154.52 1923.56 1154.5 1936.49V1936.49Z" stroke="black" stroke-width="5.5" stroke-linecap="square" stroke-linejoin="round"/>
<path d="M1492.41 1985.21H1483.54C1485.42 1985.21 1487.29 1985.21 1489.15 1984.98C1487.29 1985.15 1485.42 1985.21 1492.41 1985.21Z" stroke="black" stroke-width="5.5" stroke-linecap="square" stroke-linejoin="round"/>
<path d="M1488.5 1887.89C1486.89 1887.89 1485.17 1887.63 1483.54 1887.63H1492.41C1486.22 1887.68 1486.95 1887.89 1488.5 1887.89Z" stroke="black" stroke-width="5.5" stroke-linecap="square" stroke-linejoin="round"/>
<path opacity="0.54" d="M272.09 1801.61L126.794 1429.39C124.994 1422.19 124.859 1414.68 126.399 1407.41C127.938 1400.15 131.113 1393.34 135.681 1387.49C140.248 1381.63 146.09 1376.9 152.761 1373.65C159.432 1370.39 166.757 1368.7 174.18 1368.7H751.387C764.345 1368.69 776.927 1373.05 787.106 1381.07C797.285 1389.09 804.469 1400.3 807.5 1412.9L966.568 1785.08C968.293 1792.26 968.367 1799.74 966.784 1806.95C965.201 1814.17 962.002 1820.93 957.429 1826.73C952.856 1832.53 947.027 1837.22 940.38 1840.44C933.734 1843.66 926.444 1845.34 919.057 1845.34H328.036C315.169 1845.33 302.673 1841.03 292.535 1833.11C282.397 1825.18 275.201 1814.1 272.09 1801.61Z" fill="white"/>
<path d="M272.09 1801.61L126.794 1429.39C124.994 1422.19 124.859 1414.68 126.399 1407.41C127.938 1400.15 131.113 1393.34 135.681 1387.49C140.248 1381.63 146.09 1376.9 152.761 1373.65C159.432 1370.39 166.757 1368.7 174.18 1368.7H751.387C764.345 1368.69 776.927 1373.05 787.106 1381.07C797.285 1389.09 804.469 1400.3 807.5 1412.9L966.568 1785.08C968.293 1792.26 968.367 1799.74 966.784 1806.95C965.201 1814.17 962.002 1820.93 957.429 1826.73C952.856 1832.53 947.027 1837.22 940.38 1840.44C933.734 1843.66 926.444 1845.34 919.057 1845.34H328.036C315.169 1845.33 302.673 1841.03 292.535 1833.11C282.397 1825.18 275.201 1814.1 272.09 1801.61Z" fill="#4169E1"/>
<path d="M272.09 1801.61L126.794 1429.39C124.994 1422.19 124.859 1414.68 126.399 1407.41C127.938 1400.15 131.113 1393.34 135.681 1387.49C140.248 1381.63 146.09 1376.9 152.761 1373.65C159.432 1370.39 166.757 1368.7 174.18 1368.7H751.387C764.345 1368.69 776.927 1373.05 787.106 1381.07C797.285 1389.09 804.469 1400.3 807.5 1412.9L966.568 1785.08C968.293 1792.26 968.367 1799.74 966.784 1806.95C965.201 1814.17 962.002 1820.93 957.429 1826.73C952.856 1832.53 947.027 1837.22 940.38 1840.44C933.734 1843.66 926.444 1845.34 919.057 1845.34H328.036C315.169 1845.33 302.673 1841.03 292.535 1833.11C282.397 1825.18 275.201 1814.1 272.09 1801.61Z" stroke="black" stroke-width="5.5" stroke-linecap="square" stroke-linejoin="round"/>
<path d="M293.313 1786.54L159.361 1443.14C157.698 1436.5 157.57 1429.57 158.986 1422.88C160.402 1416.18 163.325 1409.89 167.534 1404.49C171.742 1399.1 177.125 1394.73 183.274 1391.72C189.423 1388.71 196.176 1387.14 203.021 1387.14H735.438C747.393 1387.14 758.998 1391.16 768.387 1398.56C777.776 1405.96 784.402 1416.31 787.198 1427.93L933.938 1771.18C935.53 1777.81 935.598 1784.71 934.138 1791.36C932.679 1798.02 929.729 1804.26 925.51 1809.61C921.292 1814.97 915.915 1819.29 909.783 1822.27C903.652 1825.24 896.926 1826.79 890.111 1826.79H344.968C333.105 1826.8 321.58 1822.84 312.222 1815.55C302.864 1808.26 296.209 1798.05 293.313 1786.54Z" fill="#4169E1"/>
<path d="M696.969 1450.28C689.916 1439.67 678.383 1434.96 671.183 1439.82C663.983 1444.67 663.879 1457.08 670.932 1467.7C672.044 1469.31 673.29 1470.83 674.658 1472.24L622.333 1582.68C613.961 1577.12 604.814 1575.74 598.242 1580.13C596.12 1581.67 594.362 1583.66 593.093 1585.96C591.824 1588.26 591.074 1590.8 590.896 1593.42L555.147 1581.35L523.899 1570.88L513.685 1567.53C512.405 1563.69 510.624 1560.04 508.39 1556.67C498.469 1541.77 482.269 1535.15 472.16 1541.87C462.051 1548.59 461.946 1565.77 471.595 1580.57L412.133 1661.84C399.156 1651.19 383.856 1647.9 373.266 1654.94C358.866 1664.54 358.615 1689.55 372.784 1710.82C373.349 1711.66 373.998 1712.37 374.584 1713.16L334.88 1767.41L334.524 1767.94C333.406 1769.44 332.605 1771.16 332.173 1772.99C331.74 1774.82 331.684 1776.71 332.008 1778.56C332.332 1780.41 333.029 1782.18 334.057 1783.75C335.084 1785.32 336.421 1786.67 337.986 1787.71C339.55 1788.74 341.31 1789.45 343.157 1789.79C345.004 1790.13 346.901 1790.08 348.731 1789.66C350.561 1789.24 352.287 1788.45 353.802 1787.35C355.318 1786.24 356.592 1784.83 357.547 1783.21L392.856 1730.07C403.991 1736.54 415.879 1737.78 424.523 1732C438.295 1722.83 438.944 1699.64 426.616 1679.05L483.65 1592.96C492.022 1598.68 501.357 1600.14 508.013 1595.72C511.735 1593.1 514.27 1589.11 515.066 1584.63L519.252 1585.82L551.045 1594.51L591.733 1605.48C592.97 1610.35 595.022 1614.98 597.803 1619.17C607.703 1634.05 623.923 1640.68 634.033 1633.96C644.142 1627.24 644.267 1609.73 634.367 1594.85C632.906 1592.68 631.268 1590.65 629.47 1588.75L679.262 1476.17C685.269 1480.36 691.82 1481.3 696.655 1478.14C703.96 1473.47 704.064 1460.91 696.969 1450.28Z" fill="white"/>
<path d="M318.136 1456.37H241.009C237.461 1456.39 233.986 1455.36 231.012 1453.43C228.037 1451.5 225.692 1448.74 224.265 1445.49C223.825 1444.49 223.59 1443.42 223.574 1442.33C223.596 1440.23 224.445 1438.22 225.938 1436.74C227.43 1435.26 229.446 1434.42 231.549 1434.42H313.573C309.764 1440.93 311.857 1449.97 318.136 1456.37Z" fill="#D7E8F0"/>
<path d="M368.075 1448.46C368.064 1450.56 367.224 1452.57 365.738 1454.05C364.253 1455.53 362.241 1456.37 360.143 1456.37H318.136C311.732 1449.97 309.764 1440.93 313.636 1434.42H350.682C354.223 1434.4 357.693 1435.41 360.667 1437.33C363.641 1439.25 365.99 1442 367.426 1445.24C367.859 1446.26 368.08 1447.35 368.075 1448.46Z" fill="#4169E1"/>
<path d="M348.777 1456.37C348.552 1456.79 348.3 1457.2 348.024 1457.59C342.498 1465.1 330.568 1465.81 321.296 1459.03C320.186 1458.23 319.143 1457.34 318.178 1456.37C311.773 1449.97 309.806 1440.93 313.678 1434.42C313.888 1433.99 314.14 1433.58 314.431 1433.2C319.894 1425.65 331.824 1425 341.096 1431.72C342.223 1432.53 343.28 1433.43 344.257 1434.42C350.619 1440.84 352.587 1449.8 348.777 1456.37Z" fill="white"/>
<path d="M387.477 1496.89C387.46 1499 386.613 1501.01 385.119 1502.49C383.626 1503.97 381.607 1504.8 379.503 1504.8H298.525C302.438 1498.23 300.492 1489.27 294.066 1482.85H370.126C373.674 1482.83 377.148 1483.86 380.123 1485.79C383.098 1487.72 385.443 1490.48 386.87 1493.73C387.281 1494.73 387.488 1495.81 387.477 1496.89Z" fill="#4169E1"/>
<path d="M298.524 1504.87H260.432C256.891 1504.89 253.421 1503.87 250.447 1501.95C247.474 1500.03 245.125 1497.28 243.688 1494.05C243.249 1493.03 243.014 1491.95 242.997 1490.84C242.992 1489.8 243.192 1488.77 243.588 1487.81C243.983 1486.84 244.565 1485.97 245.301 1485.23C246.036 1484.49 246.91 1483.91 247.873 1483.51C248.835 1483.11 249.867 1482.91 250.909 1482.91H294.066C300.492 1489.27 302.438 1498.23 298.524 1504.87Z" fill="#D7E8F0"/>
<path d="M298.524 1504.87C298.351 1505.3 298.118 1505.71 297.834 1506.08C292.371 1513.66 280.42 1514.31 271.148 1507.59C270.001 1506.76 268.917 1505.85 267.904 1504.87C261.625 1498.46 259.532 1489.48 263.404 1482.91C263.609 1482.49 263.862 1482.09 264.157 1481.72C269.662 1474.18 281.592 1473.49 290.885 1480.25C291.983 1481.06 293.019 1481.95 293.983 1482.91C300.492 1489.27 302.438 1498.23 298.524 1504.87Z" fill="white"/>
<path d="M325.503 1553.01H277.029C273.488 1553.02 270.02 1552 267.047 1550.07C264.075 1548.15 261.725 1545.4 260.285 1542.16C259.846 1541.17 259.611 1540.09 259.595 1539C259.6 1536.89 260.442 1534.87 261.936 1533.37C263.431 1531.88 265.456 1531.04 267.569 1531.03H320.899C317.173 1537.5 319.141 1546.48 325.503 1553.01Z" fill="#4169E1"/>
<path d="M404.075 1545.03C404.064 1547.13 403.222 1549.13 401.735 1550.61C400.248 1552.08 398.237 1552.91 396.142 1552.9H325.504C319.225 1546.48 317.132 1537.5 320.983 1530.92H386.724C390.256 1530.92 393.711 1531.95 396.667 1533.88C399.622 1535.82 401.95 1538.57 403.363 1541.81C403.817 1542.82 404.06 1543.92 404.075 1545.03Z" fill="#D7E8F0"/>
<path d="M356.082 1553.01C355.877 1553.43 355.624 1553.83 355.329 1554.2C349.866 1561.78 337.936 1562.42 328.664 1555.71C327.551 1554.88 326.495 1553.98 325.504 1553.01C319.225 1546.58 317.132 1537.6 320.983 1531.03C321.204 1530.61 321.455 1530.21 321.736 1529.84C327.262 1522.32 339.192 1521.65 348.464 1528.37C349.564 1529.18 350.606 1530.07 351.582 1531.03C357.903 1537.35 359.996 1546.37 356.082 1553.01Z" fill="white"/>
<path d="M638.93 1779.76H590.436C586.894 1779.77 583.426 1778.75 580.454 1776.83C577.481 1774.9 575.132 1772.16 573.692 1768.92C573.235 1767.93 572.993 1766.85 572.98 1765.76C572.986 1763.65 573.827 1761.62 575.322 1760.13C576.816 1758.63 578.841 1757.79 580.954 1757.79H634.305C630.6 1764.4 632.568 1773.34 638.93 1779.76Z" fill="#4169E1"/>
<path d="M831.381 1771.89C831.379 1772.93 831.172 1773.95 830.773 1774.91C830.374 1775.87 829.79 1776.73 829.055 1777.47C828.321 1778.2 827.449 1778.77 826.491 1779.17C825.533 1779.56 824.506 1779.76 823.47 1779.76H638.93C632.651 1773.34 630.558 1764.36 634.409 1757.79H814.03C817.562 1757.78 821.018 1758.81 823.973 1760.75C826.929 1762.68 829.256 1765.43 830.67 1768.67C831.124 1769.68 831.366 1770.78 831.381 1771.89Z" fill="#D7E8F0"/>
<path d="M669.509 1779.76C669.303 1780.19 669.05 1780.59 668.755 1780.95C663.292 1788.53 651.362 1789.18 642.09 1782.46C640.973 1781.64 639.917 1780.74 638.93 1779.76C632.651 1773.34 630.558 1764.36 634.409 1757.79C634.63 1757.37 634.882 1756.97 635.163 1756.59C640.688 1749.08 652.618 1748.41 661.89 1755.13C662.99 1755.94 664.033 1756.83 665.009 1757.79C671.413 1764.21 673.381 1773.23 669.509 1779.76Z" fill="white"/>
</svg>
