<svg width="2093" height="2093" viewBox="0 0 2093 2093" fill="none" xmlns="http://www.w3.org/2000/svg">
<g clip-path="url(#clip0)">
<path d="M1373.85 394.405V-750.089H1898.14V544.431" stroke="#CCDDE2" stroke-width="4.82" stroke-miterlimit="10"/>
<path d="M1425.96 16.7441V83.7201H1492.94V-39.1809H1425.96V16.7441ZM1436.97 -28.2136H1481.84V16.7441H1436.97V-28.2136ZM1436.97 27.7323H1481.84V72.7318H1436.97V27.7323Z" fill="#D7E8F0"/>
<path d="M1544.05 16.7441V83.7201H1611.02V-39.1809H1544.05V16.7441ZM1555.1 -28.1717H1600.06V16.7441H1555.1V-28.1717ZM1555.1 27.7742H1600.06V72.7318H1555.1V27.7742Z" fill="#D7E8F0"/>
<path d="M1658.91 16.7441V83.7201H1725.89V-39.1809H1658.91V16.7441ZM1669.92 -28.2136H1714.88V16.7441H1669.92V-28.2136ZM1669.92 27.7323H1714.88V72.7318H1669.92V27.7323Z" fill="#D7E8F0"/>
<path d="M1767.04 16.7441V83.7201H1834.01V-39.1809H1767.04V16.7441ZM1778.02 -28.2136H1823V16.7441H1778.02V-28.2136ZM1778.02 27.7323H1823V72.7318H1778.02V27.7323Z" fill="#D7E8F0"/>
<path d="M1350.72 1425.6C1333.03 1443.44 1315.51 1463.28 1296.84 1481.3C1291.71 1486.31 1286.46 1491.15 1281.08 1495.83C1275.12 1501.02 1268.97 1505.96 1262.67 1510.48C1262.21 1509.16 1261.65 1507.88 1260.99 1506.65C1250.42 1485.72 1221.75 1472.47 1218.19 1448.73C1214.94 1426.57 1234.93 1406.2 1231.67 1384.48C1227.98 1359.91 1197.76 1345.32 1192.17 1321.31C1188.61 1306.41 1191.8 1289.23 1190.5 1273.86C1189.01 1256.68 1186.11 1239.66 1181.81 1222.96C1183.91 1222.81 1186 1222.75 1188.09 1222.69C1230.58 1221.98 1272.4 1245.84 1286.15 1279.37C1297.22 1306.58 1291.59 1337.78 1306.3 1363.21C1307.19 1364.86 1308.19 1366.44 1309.3 1367.94C1311.25 1370.61 1313.34 1373.17 1315.58 1375.6L1320.24 1380.46C1321.02 1381.23 1321.88 1381.94 1322.65 1382.78C1323.42 1383.62 1324.26 1384.35 1325.04 1385.19C1332.36 1392.2 1339.83 1399.25 1344.69 1407.63C1345.13 1408.35 1345.52 1409.11 1345.86 1409.89C1346.3 1410.66 1346.69 1411.47 1347.03 1412.29C1347.47 1413.19 1347.81 1414.05 1348.12 1414.89C1348.44 1415.73 1348.83 1416.98 1349.17 1417.86C1349.63 1419.43 1350.07 1420.92 1350.4 1422.47C1350.4 1422.86 1350.4 1423.2 1350.53 1423.51C1350.65 1423.83 1350.53 1423.76 1350.53 1423.91C1350.56 1424.03 1350.56 1424.16 1350.53 1424.29C1350.53 1424.56 1350.53 1424.75 1350.65 1424.94V1425.06C1350.62 1425.24 1350.65 1425.43 1350.72 1425.6Z" fill="white"/>
<path d="M1350.99 1426.9H1351.05L1350.99 1426.96V1426.9Z" fill="white"/>
<path d="M1351.12 1426.78C1351.64 1426.32 1352.08 1426 1352.6 1425.54C1352.16 1425.94 1351.64 1426.38 1351.18 1426.84C1351.18 1426.84 1351.18 1426.84 1351.05 1426.84L1351.12 1426.78Z" fill="white"/>
<path d="M1499.86 1323.74C1499.41 1331.04 1499.41 1338.35 1499.86 1345.65C1487.1 1348.77 1474.52 1352.2 1462.19 1356.35C1454.53 1358.88 1447.02 1361.66 1439.5 1364.85C1418.66 1373.3 1399.03 1384.49 1381.13 1398.12C1385.03 1391.48 1387.77 1384.21 1389.25 1376.65C1389.25 1376.34 1389.38 1376 1389.44 1375.62C1392.68 1359.95 1392.93 1343.48 1400.32 1328.49C1414.07 1300.86 1454.28 1280.83 1496.37 1279.53H1497.14C1500.97 1279.53 1504.87 1279.53 1508.76 1279.72C1504.4 1294.08 1501.42 1308.82 1499.86 1323.74Z" fill="white"/>
<path d="M1480.73 1303.56L1462.07 1356.26C1454.4 1358.8 1446.89 1361.58 1439.38 1364.76C1451.37 1341.45 1465.1 1320.37 1480.73 1303.56Z" fill="white"/>
<path d="M1351.2 1426.99C1351.2 1426.57 1351.13 1426.15 1351.01 1425.75C1351.14 1426.53 1351.2 1426.99 1351.2 1426.99Z" fill="white"/>
<path d="M1209.23 1250.59C1251.09 1304.86 1278.89 1397.1 1296.84 1481.3C1291.71 1486.31 1286.46 1491.15 1281.08 1495.83L1209.23 1250.59Z" fill="white"/>
<path d="M1357.04 1342.09C1348.67 1367.65 1348.35 1393.46 1349.34 1409.8C1349.59 1415.08 1350.15 1420.35 1351.01 1425.56L1357.04 1342.09Z" fill="white"/>
<path d="M1350.72 1425.6C1333.03 1443.44 1315.51 1463.28 1296.84 1481.3C1291.71 1486.31 1286.46 1491.15 1281.08 1495.83C1275.12 1501.02 1268.97 1505.96 1262.67 1510.48C1262.21 1509.16 1261.65 1507.88 1260.99 1506.65C1250.42 1485.72 1221.75 1472.47 1218.19 1448.73C1214.94 1426.57 1234.93 1406.2 1231.67 1384.48C1227.98 1359.91 1197.76 1345.32 1192.17 1321.31C1188.61 1306.41 1191.8 1289.23 1190.5 1273.86C1189.01 1256.68 1186.11 1239.66 1181.81 1222.96C1183.91 1222.81 1186 1222.75 1188.09 1222.69C1230.58 1221.98 1272.4 1245.84 1286.15 1279.37C1297.22 1306.58 1291.59 1337.78 1306.3 1363.21C1307.19 1364.86 1308.19 1366.44 1309.3 1367.94C1311.25 1370.61 1313.34 1373.17 1315.58 1375.6L1320.24 1380.46C1321.02 1381.23 1321.88 1381.94 1322.65 1382.78C1323.42 1383.62 1324.26 1384.35 1325.04 1385.19C1332.36 1392.2 1339.83 1399.25 1344.69 1407.63C1345.13 1408.35 1345.52 1409.11 1345.86 1409.89C1346.3 1410.66 1346.69 1411.47 1347.03 1412.29C1347.47 1413.19 1347.81 1414.05 1348.12 1414.89C1348.44 1415.73 1348.83 1416.98 1349.17 1417.86C1349.63 1419.43 1350.07 1420.92 1350.4 1422.47C1350.4 1422.86 1350.4 1423.2 1350.53 1423.51C1350.65 1423.83 1350.53 1423.76 1350.53 1423.91C1350.56 1424.03 1350.56 1424.16 1350.53 1424.29C1350.53 1424.56 1350.53 1424.75 1350.65 1424.94V1425.06C1350.62 1425.24 1350.65 1425.43 1350.72 1425.6V1425.6Z" stroke="#CCDDE2" stroke-width="4.65" stroke-miterlimit="10"/>
<path d="M1389.25 1376.71C1387.77 1384.26 1385.02 1391.49 1381.13 1398.12" stroke="#CCDDE2" stroke-width="4.65" stroke-miterlimit="10"/>
<path d="M1499.8 1345.65C1499.35 1338.35 1499.35 1331.04 1499.8 1323.74C1501.36 1308.84 1504.34 1294.12 1508.7 1279.79C1504.8 1279.53 1500.91 1279.53 1497.08 1279.6H1496.31C1454.22 1280.9 1414.01 1300.93 1400.26 1328.55C1392.87 1343.54 1392.62 1359.95 1389.38 1375.69" stroke="#CCDDE2" stroke-width="4.65" stroke-miterlimit="10"/>
<path d="M1389.27 1376.73C1389.27 1376.4 1389.4 1376.08 1389.46 1375.69" stroke="#CCDDE2" stroke-width="4.65" stroke-miterlimit="10"/>
<path d="M1389.44 1375.6C1389.44 1375.98 1389.31 1376.31 1389.25 1376.63C1387.78 1384.2 1385.03 1391.47 1381.13 1398.12" stroke="#CCDDE2" stroke-width="4.65" stroke-miterlimit="10"/>
<path d="M1389.27 1376.73C1389.27 1376.4 1389.4 1376.08 1389.46 1375.69" stroke="#CCDDE2" stroke-width="4.65" stroke-miterlimit="10"/>
<path d="M1350.99 1426.59V1426.9" stroke="#CCDDE2" stroke-width="4.65" stroke-miterlimit="10"/>
<path d="M1480.73 1303.56C1465.1 1320.31 1451.43 1341.45 1439.38 1364.85" stroke="#CCDDE2" stroke-width="4.65" stroke-miterlimit="10"/>
<path d="M1351.2 1426.99C1351.2 1426.57 1351.13 1426.15 1351.01 1425.75C1351.14 1426.53 1351.2 1426.99 1351.2 1426.99Z" stroke="#CCDDE2" stroke-width="4.65" stroke-miterlimit="10"/>
<path d="M1209.23 1250.59C1251.09 1304.86 1278.89 1397.1 1296.84 1481.3" stroke="#CCDDE2" stroke-width="4.65" stroke-miterlimit="10"/>
<path d="M1357.04 1342.09C1348.67 1367.65 1348.35 1393.46 1349.34 1409.8C1349.59 1415.08 1350.15 1420.35 1351.01 1425.56" stroke="#CCDDE2" stroke-width="4.65" stroke-miterlimit="10"/>
<path d="M1802.24 739.624C1828.88 839.419 1856.37 946.936 1854.1 1049.51C1851.7 1157.62 1796.65 1248.35 1698.03 1294.39C1633.84 1324.35 1564.83 1329.85 1499.8 1345.61C1487.03 1348.73 1474.46 1352.16 1462.13 1356.31C1454.47 1358.84 1446.95 1361.62 1439.44 1364.8C1418.61 1373.28 1399 1384.48 1381.13 1398.12" stroke="#CCDDE2" stroke-width="4.65" stroke-miterlimit="10"/>
<path d="M737.301 171.626C737.301 171.626 613.061 143.266 509.645 178.219C496.762 182.464 484.281 187.843 472.348 194.293C413.744 226.002 369.519 285.59 372.763 393.819C374.5 450.33 371.194 506.067 360.059 560.15C356.417 577.703 351.917 595.075 346.559 612.265C333.434 654.297 314.49 694.285 290.278 731.064C213.172 847.979 224.851 969.499 310.371 1082.19C314.85 1088.09 319.455 1093.93 324.185 1099.64" stroke="#CCDDE2" stroke-width="4.65" stroke-miterlimit="10"/>
<path d="M1642.57 119.845H877.867C789.669 119.845 718.171 191.344 718.171 279.541V1000.24C718.171 1088.44 789.669 1159.94 877.867 1159.94H1642.57C1730.76 1159.94 1802.26 1088.44 1802.26 1000.24V279.541C1802.26 191.344 1730.76 119.845 1642.57 119.845Z" fill="#4169E1"/>
<path d="M1631.95 104.65H872.655C778.597 104.65 702.348 180.899 702.348 274.957V989.633C702.348 1083.69 778.597 1159.94 872.655 1159.94H1631.95C1726.01 1159.94 1802.26 1083.69 1802.26 989.633V274.957C1802.26 180.899 1726.01 104.65 1631.95 104.65Z" stroke="black" stroke-width="4.65" stroke-miterlimit="10"/>
<path d="M1621.24 140.294H899.195C810.997 140.294 739.499 211.792 739.499 299.99V979.775C739.499 1067.97 810.997 1139.47 899.195 1139.47H1621.24C1709.44 1139.47 1780.93 1067.97 1780.93 979.775V299.99C1780.93 211.792 1709.44 140.294 1621.24 140.294Z" fill="#4169E1"/>
<path d="M1657.89 192.744H1439.82C1410.18 192.744 1386.13 218.614 1386.13 250.448V755.196C1386.13 787.094 1410.18 813.026 1439.82 813.026H1657.89C1687.59 813.026 1711.72 787.094 1711.72 755.196V250.448C1711.72 218.614 1687.59 192.744 1657.89 192.744ZM1696.27 757.394C1696.23 768.005 1692 778.169 1684.49 785.67C1676.99 793.172 1666.82 797.4 1656.21 797.433H1441.64C1431.01 797.4 1420.83 793.168 1413.31 785.661C1405.79 778.153 1401.54 767.978 1401.49 757.352V248.376C1401.54 237.751 1405.79 227.575 1413.31 220.068C1420.83 212.56 1431.01 208.328 1441.64 208.295H1656.21C1666.83 208.329 1677 212.563 1684.51 220.073C1692.02 227.583 1696.24 237.758 1696.27 248.376V757.394Z" fill="#D7E8F0"/>
<path d="M1655.02 872.258H1436.95C1407.33 872.258 1383.26 898.127 1383.26 929.962V1006.73C1383.26 1038.65 1407.33 1064.58 1436.95 1064.58H1655.02C1684.72 1064.58 1708.85 1038.65 1708.85 1006.73V929.962C1708.85 898.127 1684.72 872.258 1655.02 872.258ZM1693.4 1008.95C1693.38 1019.57 1689.15 1029.74 1681.64 1037.25C1674.13 1044.75 1663.96 1048.98 1653.34 1049.01H1438.77C1428.15 1048.98 1417.96 1044.76 1410.44 1037.25C1402.92 1029.75 1398.68 1019.58 1398.63 1008.95V927.89C1398.68 917.264 1402.92 907.089 1410.44 899.581C1417.96 892.073 1428.14 887.842 1438.77 887.809H1653.34C1663.96 887.842 1674.14 892.076 1681.64 899.586C1689.15 907.096 1693.38 917.272 1693.4 927.89V1008.95Z" fill="#D7E8F0"/>
<path d="M1166.32 928.057L846.765 923.369C843.327 923.314 840.051 921.896 837.657 919.428C835.264 916.96 833.947 913.642 833.998 910.204C833.993 909.014 834.162 907.829 834.5 906.688C835.325 903.983 837.005 901.618 839.288 899.95C841.572 898.282 844.335 897.4 847.163 897.437L1166.72 902.083C1164.33 905.794 1162.99 910.083 1162.85 914.495C1162.68 919.256 1163.88 923.966 1166.32 928.057Z" fill="#4169E1"/>
<path d="M1243.81 919.685C1243 922.385 1241.34 924.751 1239.07 926.433C1236.81 928.115 1234.07 929.022 1231.25 929.02L1208.23 928.685C1210.7 924.826 1212.04 920.356 1212.11 915.775C1212.18 911.195 1210.97 906.686 1208.62 902.753L1231.65 903.088C1235.08 903.159 1238.35 904.582 1240.74 907.047C1243.13 909.511 1244.45 912.819 1244.41 916.253C1244.37 917.42 1244.17 918.575 1243.81 919.685Z" fill="#D7E8F0"/>
<path d="M1243.05 971.152C1242.24 973.847 1240.58 976.207 1238.32 977.879C1236.05 979.551 1233.31 980.444 1230.5 980.424L912.883 975.778C915.849 972.24 917.751 967.934 918.37 963.359C918.988 958.784 918.298 954.127 916.378 949.929L1230.79 954.408C1234.22 954.474 1237.49 955.895 1239.88 958.361C1242.28 960.827 1243.6 964.138 1243.56 967.573C1243.57 968.784 1243.4 969.991 1243.05 971.152Z" fill="#D7E8F0"/>
<path d="M874.665 975.191L846.032 974.773C842.602 974.723 839.33 973.317 836.934 970.861C834.537 968.406 833.211 965.102 833.244 961.671C833.258 960.46 833.434 959.256 833.767 958.092C834.57 955.397 836.232 953.039 838.499 951.377C840.766 949.714 843.514 948.838 846.325 948.882L871.839 949.28C870.347 952.376 869.507 955.746 869.369 959.18C869.157 964.979 871.036 970.662 874.665 975.191Z" fill="#4169E1"/>
<path d="M1143.72 1031.18L847.205 1026.87C843.774 1026.79 840.511 1025.37 838.122 1022.9C835.732 1020.44 834.409 1017.13 834.437 1013.7C834.445 1012.54 834.628 1011.38 834.981 1010.27C835.786 1007.57 837.444 1005.2 839.708 1003.51C841.971 1001.83 844.719 1000.93 847.539 1000.94L1143.62 1005.29C1141.2 1009.17 1139.92 1013.66 1139.92 1018.23C1139.92 1022.81 1141.2 1027.29 1143.62 1031.18H1143.72Z" fill="#4169E1"/>
<path d="M1244.29 1023.21C1243.48 1025.9 1241.82 1028.26 1239.56 1029.93C1237.29 1031.6 1234.54 1032.49 1231.73 1032.46L1185.14 1031.85L1143.72 1031.28C1141.3 1027.4 1140.02 1022.91 1140.02 1018.34C1140.02 1013.76 1141.3 1009.28 1143.72 1005.39L1185.91 1006.02L1231.96 1006.69C1235.39 1006.75 1238.65 1008.16 1241.05 1010.61C1243.44 1013.06 1244.76 1016.37 1244.73 1019.79C1244.74 1020.95 1244.6 1022.09 1244.29 1023.21Z" fill="#D7E8F0"/>
<path d="M1208.1 928.685C1204.88 933.715 1199.95 937.405 1194.21 939.072C1188.48 940.739 1182.34 940.268 1176.92 937.747C1171.51 935.227 1167.2 930.827 1164.78 925.366C1162.37 919.905 1162.02 913.754 1163.8 908.053C1165.57 902.353 1169.36 897.492 1174.45 894.373C1179.54 891.254 1185.59 890.088 1191.48 891.092C1197.37 892.096 1202.69 895.202 1206.46 899.834C1210.22 904.465 1212.18 910.306 1211.97 916.274C1211.82 920.683 1210.48 924.971 1208.1 928.685Z" fill="white"/>
<g opacity="0.72">
<path opacity="0.72" d="M1198.83 913.615C1198.27 916.56 1196.89 919.284 1194.83 921.464C1193.83 922.573 1192.74 923.596 1191.57 924.52C1190.92 924.98 1187.55 927.68 1186.9 927.346C1182.46 925.106 1176.87 919.476 1176.18 913.971C1176.07 913.11 1176.07 912.237 1176.18 911.376C1176.43 909.894 1177.2 908.549 1178.35 907.585C1179.5 906.621 1180.96 906.102 1182.46 906.122C1183.45 906.159 1184.41 906.425 1185.27 906.902C1186.13 907.378 1186.87 908.05 1187.42 908.864C1188.05 908.107 1188.84 907.501 1189.74 907.092C1190.63 906.682 1191.61 906.48 1192.59 906.499C1193.48 906.529 1194.35 906.741 1195.15 907.12C1195.95 907.5 1196.67 908.04 1197.25 908.707C1197.83 909.374 1198.28 910.154 1198.55 910.998C1198.82 911.842 1198.91 912.733 1198.83 913.615Z" fill="#4169E1"/>
</g>
<path d="M912.841 975.778C910.496 978.588 907.552 980.839 904.226 982.365C900.899 983.891 897.273 984.654 893.613 984.597C889.953 984.541 886.352 983.667 883.074 982.04C879.795 980.413 876.922 978.073 874.665 975.192C871.051 970.656 869.187 964.974 869.411 959.18C869.548 955.746 870.389 952.376 871.881 949.28C873.982 945.011 877.274 941.441 881.359 939.001C885.445 936.561 890.149 935.355 894.904 935.529C899.484 935.674 903.931 937.108 907.733 939.666C911.536 942.225 914.539 945.804 916.399 949.992C918.319 954.19 919.009 958.847 918.391 963.422C917.772 967.997 915.87 972.303 912.904 975.84L912.841 975.778Z" fill="white"/>
<g opacity="0.72">
<path opacity="0.72" d="M905.411 958.259C904.844 961.198 903.45 963.913 901.392 966.087C900.408 967.211 899.314 968.235 898.127 969.143C897.499 969.603 894.109 972.324 893.481 971.968C889.044 969.75 883.455 964.119 882.744 958.594C882.629 957.733 882.629 956.86 882.744 955.999C882.959 954.773 883.534 953.639 884.395 952.74C885.257 951.842 886.366 951.22 887.581 950.953C888.797 950.686 890.064 950.786 891.223 951.241C892.381 951.696 893.378 952.485 894.088 953.508C894.918 952.354 896.115 951.516 897.484 951.131C898.852 950.746 900.311 950.837 901.621 951.389C902.931 951.941 904.016 952.921 904.696 954.169C905.377 955.417 905.614 956.859 905.369 958.259H905.411Z" fill="#4169E1"/>
</g>
<path d="M1185.14 1031.85C1182.18 1036.31 1177.85 1039.69 1172.81 1041.47C1167.76 1043.25 1162.27 1043.34 1157.16 1041.72C1152.06 1040.1 1147.63 1036.86 1144.53 1032.49C1141.44 1028.12 1139.85 1022.86 1140.02 1017.51C1140.17 1013.22 1141.43 1009.05 1143.68 1005.39C1145.4 1002.64 1147.65 1000.25 1150.3 998.375C1152.95 996.496 1155.95 995.161 1159.11 994.446C1162.28 993.731 1165.56 993.651 1168.76 994.21C1171.96 994.769 1175.02 995.956 1177.76 997.704C1180.49 999.451 1182.86 1001.72 1184.71 1004.39C1186.57 1007.06 1187.88 1010.06 1188.56 1013.24C1189.25 1016.41 1189.3 1019.69 1188.71 1022.89C1188.13 1026.08 1186.91 1029.13 1185.14 1031.85Z" fill="white"/>
<g opacity="0.72">
<path opacity="0.72" d="M1176.04 1016.49C1175.47 1019.43 1174.08 1022.16 1172.02 1024.34C1171.03 1025.46 1169.94 1026.48 1168.75 1027.39C1168.12 1027.85 1164.73 1030.55 1164.11 1030.22C1159.67 1027.98 1154.08 1022.37 1153.37 1016.84C1153.25 1015.98 1153.25 1015.11 1153.37 1014.25C1153.58 1013.02 1154.16 1011.89 1155.02 1010.99C1155.88 1010.09 1156.99 1009.47 1158.21 1009.2C1159.42 1008.93 1160.69 1009.03 1161.85 1009.49C1163.01 1009.94 1164 1010.73 1164.71 1011.76C1165.54 1010.61 1166.74 1009.77 1168.1 1009.39C1169.47 1009 1170.92 1009.09 1172.23 1009.64C1173.54 1010.19 1174.62 1011.16 1175.31 1012.41C1175.99 1013.65 1176.23 1015.09 1175.99 1016.49H1176.04Z" fill="#4169E1"/>
</g>
<path d="M831.549 254.007L832.093 329.752C832.233 342.964 837.475 355.611 846.724 365.047C855.973 374.483 868.511 379.978 881.718 380.382L956.689 381.68C963.136 381.778 969.537 380.581 975.513 378.159C981.488 375.737 986.916 372.139 991.475 367.578C996.033 363.018 999.628 357.589 1002.05 351.612C1004.47 345.636 1005.66 339.234 1005.56 332.787L1005 257.041C1004.87 243.832 999.63 231.185 990.383 221.75C981.136 212.316 968.596 206.827 955.392 206.433L880.42 205.114C873.973 205.015 867.572 206.212 861.597 208.635C855.621 211.057 850.193 214.655 845.635 219.215C841.077 223.776 837.481 229.205 835.061 235.181C832.642 241.158 831.447 247.56 831.549 254.007Z" fill="white"/>
<path d="M843.081 273.011L843.479 327.847C843.603 339.319 848.157 350.298 856.189 358.489C864.22 366.681 875.107 371.45 886.574 371.8L951.687 372.931C957.287 373.015 962.846 371.975 968.036 369.873C973.227 367.77 977.942 364.647 981.904 360.69C985.866 356.732 988.993 352.019 991.101 346.831C993.209 341.643 994.254 336.084 994.175 330.485V326.78C985.029 308.069 967.217 280.064 948.129 296.808C920.732 320.878 908.195 302.564 892.225 278.934C878.893 259.155 858.611 244.713 843.081 273.011Z" fill="#4169E1"/>
<path d="M965.585 265.439C973.856 259.944 975.986 248.605 970.344 240.113C964.702 231.622 953.424 229.192 945.154 234.687C936.883 240.182 934.753 251.52 940.395 260.012C946.037 268.504 957.315 270.934 965.585 265.439Z" fill="#4169E1"/>
<path d="M1267.06 284.648C1255.34 284.644 1243.91 288.267 1234.34 295.02C1224.76 301.773 1217.51 311.325 1213.58 322.364C1209.66 333.402 1209.24 345.386 1212.4 356.67C1215.55 367.954 1222.12 377.985 1231.21 385.384L1082.6 688.262C1081.69 688.118 1080.77 688.027 1079.84 687.99C1077.47 688.021 1075.12 688.388 1072.85 689.079L976.175 568.961C980.492 563.005 982.936 555.897 983.196 548.546C983.456 541.194 981.521 533.932 977.637 527.685C973.752 521.438 968.095 516.489 961.387 513.471C954.678 510.452 947.223 509.501 939.972 510.737C932.72 511.973 926.001 515.342 920.672 520.412C915.343 525.483 911.645 532.027 910.05 539.208C908.455 546.389 909.035 553.882 911.717 560.732C914.398 567.582 919.06 573.478 925.106 577.668L857.356 770.475C851.448 770.829 845.846 773.216 841.499 777.232C837.153 781.249 834.331 786.646 833.513 792.506C832.695 798.367 833.931 804.331 837.012 809.384C840.092 814.436 844.827 818.267 850.412 820.224C855.996 822.182 862.086 822.145 867.647 820.121C873.208 818.097 877.897 814.211 880.917 809.122C883.937 804.033 885.102 798.055 884.214 792.204C883.326 786.353 880.44 780.99 876.046 777.026L943.796 584.198C944.634 584.198 945.45 584.324 946.287 584.324C951.325 584.323 956.309 583.298 960.938 581.31L1057.59 701.385C1055.56 705.079 1054.48 709.223 1054.45 713.441C1054.36 716.86 1054.94 720.264 1056.19 723.451C1057.43 726.638 1059.29 729.544 1061.68 731.997C1064.06 734.45 1066.91 736.4 1070.06 737.732C1073.21 739.063 1076.6 739.749 1080.02 739.749C1083.44 739.749 1086.83 739.063 1089.98 737.732C1093.13 736.4 1095.98 734.45 1098.36 731.997C1100.75 729.544 1102.61 726.638 1103.85 723.451C1105.09 720.264 1105.68 716.86 1105.59 713.441C1105.57 707.755 1103.64 702.24 1100.1 697.785L1248.7 394.907C1256.52 397.658 1264.83 398.665 1273.08 397.859C1281.32 397.052 1289.28 394.452 1296.41 390.239C1303.54 386.027 1309.66 380.305 1314.35 373.476C1319.03 366.646 1322.16 358.874 1323.52 350.705C1324.88 342.536 1324.44 334.169 1322.22 326.19C1320 318.212 1316.06 310.815 1310.68 304.52C1305.3 298.225 1298.61 293.185 1291.07 289.751C1283.54 286.318 1275.34 284.577 1267.06 284.648Z" fill="#D7E8F0"/>
<path d="M1446.64 393.798H1645.47" stroke="white" stroke-width="4.65" stroke-miterlimit="10"/>
<path d="M1446.64 424.502H1645.47" stroke="white" stroke-width="4.65" stroke-miterlimit="10"/>
<path d="M1446.64 455.186H1645.47" stroke="white" stroke-width="4.65" stroke-miterlimit="10"/>
<path d="M1446.64 485.869H1645.47" stroke="white" stroke-width="4.65" stroke-miterlimit="10"/>
<path d="M1446.64 516.573H1645.47" stroke="white" stroke-width="4.65" stroke-miterlimit="10"/>
<path d="M1446.64 695.818H1645.47" stroke="white" stroke-width="4.65" stroke-miterlimit="10"/>
<path d="M1446.64 722.901H1645.47" stroke="white" stroke-width="4.65" stroke-miterlimit="10"/>
<path d="M1603.7 930.297C1605.7 931.954 1607.3 934.039 1608.38 936.397C1609.47 938.754 1610.02 941.326 1609.98 943.922L1609.52 1005.31C1609.5 1007.63 1609.03 1009.92 1608.12 1012.05C1607.22 1014.18 1605.9 1016.12 1604.25 1017.74C1602.6 1019.37 1600.64 1020.65 1598.49 1021.51C1596.34 1022.38 1594.04 1022.81 1591.73 1022.79L1499.63 1021.99C1494.96 1021.95 1490.5 1020.05 1487.23 1016.72C1483.96 1013.39 1482.14 1008.89 1482.18 1004.22L1482.72 942.792C1482.9 938.164 1484.84 933.779 1488.14 930.534C1491.44 927.288 1495.86 925.429 1500.49 925.336L1592.58 926.132C1596.66 926.167 1600.6 927.642 1603.7 930.297Z" fill="white"/>
<path d="M1590.68 941.515L1547.73 978.415C1547.18 978.882 1546.49 979.139 1545.76 979.139C1545.04 979.139 1544.35 978.882 1543.8 978.415L1500.07 940.741C1499.59 940.334 1499.25 939.787 1499.09 939.175C1498.94 938.563 1498.98 937.918 1499.21 937.33C1499.44 936.743 1499.85 936.243 1500.38 935.901C1500.91 935.559 1501.54 935.393 1502.17 935.425L1588.84 936.199C1589.45 936.219 1590.04 936.424 1590.53 936.786C1591.02 937.147 1591.39 937.649 1591.58 938.225C1591.78 938.8 1591.8 939.423 1591.64 940.01C1591.48 940.598 1591.15 941.122 1590.68 941.515Z" fill="#4169E1"/>
<path d="M1548.95 565.905C1539.77 565.897 1530.8 568.61 1523.17 573.702C1515.53 578.793 1509.58 586.034 1506.07 594.508C1502.55 602.982 1501.62 612.309 1503.41 621.309C1505.19 630.309 1509.61 638.577 1516.09 645.068C1522.58 651.558 1530.84 655.98 1539.84 657.773C1548.84 659.566 1558.17 658.65 1566.64 655.141C1575.12 651.631 1582.37 645.687 1587.47 638.058C1592.56 630.43 1595.28 621.461 1595.28 612.286C1595.29 606.198 1594.09 600.169 1591.76 594.543C1589.44 588.918 1586.02 583.805 1581.72 579.499C1577.42 575.192 1572.31 571.775 1566.69 569.442C1561.06 567.11 1555.03 565.908 1548.95 565.905ZM1548.95 647.532C1547.15 647.532 1545.42 646.818 1544.15 645.546C1542.88 644.274 1542.16 642.55 1542.16 640.751C1542.16 638.953 1542.88 637.228 1544.15 635.956C1545.42 634.684 1547.15 633.97 1548.95 633.97C1550.74 633.97 1552.47 634.684 1553.74 635.956C1555.01 637.228 1555.73 638.953 1555.73 640.751C1555.73 642.55 1555.01 644.274 1553.74 645.546C1552.47 646.818 1550.74 647.532 1548.95 647.532ZM1557.46 595.375C1556.04 605.442 1554.83 616.012 1551.83 625.765C1551.56 626.296 1551.14 626.74 1550.62 627.05C1550.11 627.36 1549.52 627.523 1548.92 627.523C1548.33 627.523 1547.74 627.36 1547.22 627.05C1546.71 626.74 1546.29 626.296 1546.02 625.765C1543.89 618.418 1542.27 610.936 1541.16 603.37C1540.22 597.886 1536.97 588.949 1540.09 583.633C1542.79 578.84 1550.43 578.275 1554.74 580.766C1560.25 583.717 1558.11 590.226 1557.46 595.291V595.375Z" fill="white"/>
<path d="M1267.88 384.128C1290.88 384.128 1309.53 365.481 1309.53 342.478C1309.53 319.475 1290.88 300.827 1267.88 300.827C1244.87 300.827 1226.23 319.475 1226.23 342.478C1226.23 365.481 1244.87 384.128 1267.88 384.128Z" fill="white"/>
<path d="M1548.61 282.806C1556.3 282.806 1562.53 276.575 1562.53 268.888C1562.53 261.201 1556.3 254.969 1548.61 254.969C1540.92 254.969 1534.69 261.201 1534.69 268.888C1534.69 276.575 1540.92 282.806 1548.61 282.806Z" fill="white"/>
<path d="M1509.74 331.824C1509.74 321.516 1513.84 311.63 1521.13 304.341C1528.42 297.052 1538.3 292.957 1548.61 292.957C1558.92 292.957 1568.8 297.052 1576.09 304.341C1583.38 311.63 1587.48 321.516 1587.48 331.824H1509.74Z" fill="white"/>
<path d="M1280.92 1662.24C1280.91 1665.4 1279.94 1668.49 1278.13 1671.08C1276.32 1673.68 1273.77 1675.66 1270.81 1676.77L1125.03 1731.18C1125.03 1731.18 1118.08 1718.29 1105.96 1696.75L1022.7 1557.46C1000.2 1673.21 975.108 1789.1 959.557 1861.33L944.571 1933.24L1004.64 1953C1008.25 1953.87 1011.47 1955.93 1013.77 1958.84C1016.07 1961.76 1017.33 1965.36 1017.34 1969.07C1017.34 1971.59 1016.76 1974.08 1015.65 1976.34C1014.55 1978.6 1012.94 1980.59 1010.95 1982.14C1008.97 1983.69 1006.65 1984.77 1004.19 1985.29C1001.73 1985.82 999.174 1985.77 996.728 1985.17L857.502 1949.88V1915.85L854.195 1915.2L857.063 1518.22L721.018 1486.05C703.96 1491.37 685.939 1496.24 667.521 1500.2C667.322 1500.23 667.127 1500.27 666.934 1500.33C622.231 1512.04 575.536 1514.06 529.989 1506.23C529.592 1506.23 529.131 1506.04 528.755 1505.96C525.448 1505.33 522.141 1504.6 518.897 1503.86C517.913 1503.67 516.95 1503.49 515.966 1503.21C513.12 1502.56 510.273 1501.73 507.427 1500.95C505.857 1500.49 504.308 1500.12 502.822 1499.66C501.336 1499.2 500.227 1498.82 498.929 1498.36C474.415 1490.66 451.775 1477.94 432.456 1461C417.642 1448.56 405.082 1433.66 395.326 1416.96C391.14 1410.35 387.226 1403.4 383.584 1396.26C361.482 1352.62 356.877 1337.78 363.303 1337.39C349.153 1332.4 335.444 1326.24 322.322 1318.97C322.322 1318.97 293.397 1150.17 356.48 980.278C355.272 969.769 355.491 959.145 357.129 948.694C370.419 853.379 443.569 755.406 530.848 715.722C577.605 694.457 653.853 661.828 629.219 596.861C621.433 576.308 610.382 558.601 608.289 537.273C608.1 535.18 607.849 533.317 607.703 531.245C604.207 481.013 633.446 433.314 680.79 416.13C696.281 410.298 712.839 407.841 729.356 408.923C745.874 410.006 761.969 414.604 776.566 422.409C781.607 425.071 786.13 428.615 789.919 432.874C804.319 433.251 822.403 435.784 830.9 439.739C845.3 446.479 856.832 458.283 865.456 471.574C881.362 496.347 887.749 526.046 883.434 555.168C880.956 571.284 875.216 586.724 866.565 600.545C862.299 607.469 857.348 613.948 851.788 619.884C846.912 624.991 839.984 632.442 833.307 635.184C833.381 635.243 833.474 635.276 833.569 635.276C833.664 635.276 833.756 635.243 833.83 635.184L831.884 666.307C871.86 657.202 978.666 619.696 1056.97 464.834C1062.62 452.842 1068.43 440.911 1074.55 429.107C1092.63 393.965 1112.01 359.012 1137.69 328.789C1143.97 321.464 1153.26 314.85 1163.25 318.031C1172 320.815 1177.9 330.589 1171.81 338.794L1129.78 396.226L1143.2 394.489C1144.66 394.842 1146.03 395.51 1147.2 396.446C1148.38 397.383 1149.34 398.565 1150.01 399.91C1150.69 401.255 1151.06 402.731 1151.1 404.235C1151.15 405.739 1150.86 407.234 1150.27 408.616L1141.77 428.793L1145.79 424.063C1148.56 420.798 1152.48 418.728 1156.73 418.287C1160.99 417.845 1165.25 419.065 1168.62 421.693C1172 424.32 1174.23 428.151 1174.85 432.384C1175.46 436.617 1174.42 440.925 1171.93 444.407L1149.79 473.018C1146.82 476.796 1143.06 479.87 1138.76 482.018L1094.93 503.157C1107.89 519.092 1119.95 535.744 1131.04 553.034C1106.97 599.159 1078.76 642.999 1046.75 684.013C992.794 753.522 915.101 831.214 820.247 863.698C818.154 921.15 808.003 978.08 792.242 1033.77C841.449 1033.77 888.395 1033.77 935.864 1033.77L971.654 936.115C973.299 931.609 976.29 927.718 980.221 924.97C984.153 922.222 988.834 920.75 993.631 920.753H1136.69C1139.18 920.761 1141.64 921.244 1143.95 922.176C1147.46 923.624 1150.46 926.079 1152.57 929.23C1154.68 932.382 1155.81 936.089 1155.82 939.883C1155.79 942.209 1155.35 944.513 1154.52 946.685L1145.04 971.34H1144.72H1104.39L1087.98 1018.35L1092.65 1006.48H1112.83C1115.99 1006.48 1119.1 1007.26 1121.88 1008.75C1124.67 1010.25 1127.04 1012.4 1128.79 1015.03C1130.54 1017.66 1131.62 1020.69 1131.92 1023.83C1132.22 1026.98 1131.73 1030.15 1130.51 1033.06L1113.33 1074.17C1108.15 1086.55 1099.93 1097.42 1089.44 1105.79C1078.95 1114.15 1066.52 1119.74 1053.3 1122.04L1051.48 1122.35L1048.11 1132.31L1049.85 1128.88C1049.28 1130.24 1048.63 1131.73 1048.05 1133.36H1093.3C1093.3 1133.36 1083.25 1162.66 1064.77 1164.42C1063.28 1164.54 1061.78 1164.49 1060.29 1164.27H966.527C971.78 1170.11 977.682 1177.19 983.982 1185.5C1011.19 1185.1 1050.77 1188.01 1060.56 1207.01C1062.25 1208.9 1063.79 1210.92 1065.17 1213.04C1068.92 1219.32 1070.15 1233.97 1069.25 1255.13C1069.52 1276.95 1067.69 1298.75 1063.79 1320.22C1068.53 1329.12 1073.1 1338.08 1077.48 1347.08C1087 1364.88 1095.6 1383.17 1103.22 1401.87C1103.48 1402.37 1103.7 1402.88 1103.87 1403.42C1126.72 1455.81 1146.76 1509.39 1163.92 1563.91L1164.88 1567.28C1177.86 1605.54 1188.43 1640.31 1192.44 1661.47L1260.47 1647.53C1262.8 1646.75 1265.28 1646.54 1267.71 1646.91C1270.14 1647.28 1272.45 1648.23 1274.45 1649.66C1276.44 1651.1 1278.07 1652.99 1279.19 1655.17C1280.32 1657.36 1280.91 1659.78 1280.92 1662.24Z" fill="white"/>
<path d="M1046.19 1135.87H1091.44C1089.58 1140.98 1087.22 1145.89 1084.38 1150.52C1078.79 1159.27 1070.17 1168.42 1058.76 1166.87H921.485C916.148 1166.9 910.951 1165.17 906.708 1161.93C905.769 1157.58 906.037 1153.06 907.483 1148.85C962.926 1140.35 1019.73 1131.2 1045.14 1125.95L1049.93 1125.11L1046.19 1135.87Z" fill="#4169E1"/>
<path d="M1153.95 942.645C1153.93 944.972 1153.49 947.275 1152.66 949.448L1143.2 974.082H1102.84L1086.27 1021.38L1080.24 1036.5H948.715L979.189 953.487C980.843 948.983 983.839 945.095 987.773 942.347C991.706 939.6 996.388 938.126 1001.19 938.125H1144.22C1146.71 938.129 1149.18 938.612 1151.48 939.548C1152.29 939.875 1153.07 940.245 1153.83 940.657C1153.89 941.285 1153.95 941.997 1153.95 942.645Z" fill="#4169E1"/>
<path d="M1153.98 942.624C1153.95 944.951 1153.51 947.254 1152.68 949.427L1143.2 974.061H1102.86L1116.89 936.011C1118.44 931.791 1121.42 928.252 1125.32 926.014C1129.22 923.776 1133.78 922.982 1138.2 923.771C1142.63 924.56 1146.63 926.882 1149.52 930.329C1152.4 933.777 1153.98 938.13 1153.98 942.624Z" fill="#4169E1"/>
<path d="M1091.42 1135.87C1091.42 1135.87 1078.44 1174.01 1054.87 1165.8C1040.22 1160.76 1042.42 1146.17 1046.25 1135.79L1091.42 1135.87Z" fill="#4169E1"/>
<path d="M1058.26 974.061H992.48" stroke="white" stroke-width="4.65" stroke-linecap="round" stroke-linejoin="round"/>
<path d="M1050.16 998.842H984.38" stroke="white" stroke-width="4.65" stroke-linecap="round" stroke-linejoin="round"/>
<path d="M1101.69 1404.4C1090.3 1376.86 1077.01 1350.14 1061.93 1324.43C1068.04 1292.05 1072.2 1235.33 1058.95 1209.59C1049.16 1190.56 1009.62 1187.67 982.329 1188.07C961.252 1160.21 944.215 1145.85 944.215 1145.85C944.215 1145.85 817.337 1166.41 788.37 1166.58C759.403 1166.74 759.424 1182.8 759.424 1182.8C759.424 1182.8 739.248 1243.68 716.434 1273.93C693.62 1304.17 632.253 1340.9 543.824 1355.05C455.395 1369.2 385.845 1351.76 369.896 1342.89C353.947 1334.02 353.424 1342.58 381.972 1398.81C410.521 1455.05 454.474 1495.49 528.294 1508.82C573.826 1516.66 620.509 1514.65 665.197 1502.92C665.197 1502.92 782.008 1473.47 816.27 1451.01C850.532 1428.56 855.89 1459.09 855.89 1459.09L852.542 1917.84L942.959 1935.88L1021.07 1560.12L1104.37 1699.52L1190.92 1663.93C1180.72 1610.42 1128.38 1469.29 1101.69 1404.4Z" fill="#2E2E2E"/>
<path d="M865.393 791.007C863.539 803.75 858.119 815.708 849.758 825.5C843.336 833.708 835.163 840.379 825.835 845.028C823.646 846.086 821.37 846.954 819.033 847.623C819.033 840.36 818.907 832.972 818.51 825.772C817.023 798.793 811.582 770.705 794.398 749.964C786.132 740.054 775.698 732.177 763.903 726.941C764.238 721.959 764.636 717.02 764.95 712.039C765.85 703.521 765.808 694.929 764.824 686.42C763.716 681.257 763.085 676.002 762.94 670.723C763.129 665.804 762.417 646.925 766.31 642.844C772.805 645.551 779.764 646.973 786.801 647.03C802.561 646.905 815.077 637.235 823.512 624.865C826.614 623.851 829.838 623.26 833.098 623.107C842.642 624.53 814.156 650.211 823.449 647.302C817.4 649.165 812.984 658.249 810.138 663.439C805.952 671.476 803.524 680.937 807.626 689.434C811.644 697.555 820.058 704.546 826.023 711.222C834.066 719.666 841.586 728.592 848.544 737.95C859.553 753.271 867.59 772.087 865.393 791.007Z" fill="#4169E1"/>
<path d="M720.536 716.266C735.524 717.197 750.224 720.798 763.945 726.899C775.731 732.141 786.156 740.017 794.419 749.922C811.603 770.684 817.044 798.752 818.531 825.73C818.928 832.993 819.117 840.381 819.054 847.581C818.74 911.46 808.107 974.668 790.652 1036.47C844.861 1036.47 896.286 1036.47 948.673 1036.47H1080.24L1086.27 1021.38L1091.08 1009.24H1111.38C1114.55 1009.24 1117.66 1010.03 1120.45 1011.52C1123.23 1013.01 1125.61 1015.17 1127.36 1017.8C1129.11 1020.44 1130.19 1023.46 1130.49 1026.61C1130.79 1029.76 1130.31 1032.93 1129.09 1035.85L1111.91 1076.95C1106.71 1089.32 1098.49 1100.19 1088 1108.55C1077.5 1116.91 1065.08 1122.5 1051.86 1124.8L1050.04 1125.13L1045.24 1125.97C1019.84 1131.22 963.031 1140.37 907.588 1148.87C856.874 1156.72 807.27 1163.98 783.808 1167.35C774.912 1168.65 765.829 1169.61 756.599 1170.2C701.825 1173.57 645.272 1161.38 630.621 1099.03C621.077 1059.1 623.17 1016.05 623.609 974.48" stroke="black" stroke-width="4.65" stroke-miterlimit="10"/>
<path d="M982.768 1189.87C1018.22 1188.24 1050 1193.49 1063.62 1215.68C1070.49 1226.9 1068.81 1266.45 1061.74 1321.62" stroke="black" stroke-width="4.65" stroke-miterlimit="10"/>
<path d="M388.796 1410.54C388.872 1410.63 388.935 1410.74 388.984 1410.85C404.158 1441.78 430.844 1468.49 464.981 1487.18C585.266 1552.99 766.185 1475.88 831.256 1443.79C833.853 1442.52 836.732 1441.92 839.623 1442.07C842.514 1442.21 845.319 1443.09 847.775 1444.62C850.231 1446.15 852.255 1448.29 853.657 1450.82C855.059 1453.35 855.791 1456.2 855.786 1459.09V1952.56L994.991 1987.83C997.147 1988.38 999.392 1988.49 1001.59 1988.16C1003.79 1987.82 1005.9 1987.04 1007.79 1985.87C1009.68 1984.69 1011.32 1983.15 1012.59 1981.33C1013.87 1979.51 1014.77 1977.45 1015.23 1975.27C1016.15 1971.04 1015.37 1966.62 1013.07 1962.96C1010.76 1959.29 1007.11 1956.68 1002.9 1955.68L942.855 1935.9C945.638 1916.39 986.368 1738.01 1020.99 1560.14" stroke="black" stroke-width="4.65" stroke-miterlimit="10"/>
<path d="M941.536 1143.53C977.117 1173.67 1002.67 1220.01 1026.6 1259.38C1084.89 1355.3 1128.48 1459.7 1162.35 1566.53C1172.58 1598.8 1182 1631.41 1190.9 1664.02L1258.88 1650.06C1262.73 1648.8 1266.93 1649.11 1270.57 1650.91C1274.2 1652.71 1276.99 1655.86 1278.33 1659.69C1279.67 1663.52 1279.47 1667.72 1277.75 1671.39C1276.04 1675.07 1272.95 1677.93 1269.15 1679.36L1123.38 1733.78C1123.38 1733.78 1080.72 1654.1 1021.11 1560.06C933.75 1422.09 772.317 1209.44 729.704 1254.8" stroke="black" stroke-width="4.65" stroke-miterlimit="10"/>
<path d="M814.365 671.393C814.365 671.393 957.317 661.493 1055.31 467.493C1055.31 467.493 1086.29 488.862 1129.47 555.713C1129.47 555.713 1008.32 801.577 818.53 866.46" stroke="black" stroke-width="4.65" stroke-miterlimit="10"/>
<path d="M801.431 444.553L809.803 457.279L814.847 465.023C819.963 476.944 824.462 489.12 828.326 501.504L828.577 502.383L838.163 539.01C838.179 539.051 838.179 539.096 838.163 539.136C841.385 544.438 845.826 548.895 851.119 552.133C852.37 552.809 853.536 553.631 854.593 554.582C860.349 560.359 845.174 562.033 842.035 563.938C840.65 564.889 839.514 566.159 838.723 567.642C837.933 569.125 837.511 570.776 837.493 572.456C819.472 647.449 831.068 627.753 823.323 644.435C830.042 638.742 846.744 620.637 846.744 620.637C848.837 619.277 850.805 615.195 852.165 613.165C856.486 606.534 860.206 599.529 863.279 592.235C872.829 570.449 875.033 546.148 869.558 522.999C860.914 487.02 840.758 451.021 801.431 444.553Z" fill="#4169E1"/>
<path d="M799.714 467.179C798.181 474.962 794.49 482.157 789.061 487.941C783.166 494.386 776.302 499.873 768.717 504.204C754.443 512.701 738.557 519.127 726.564 530.596C714.556 542.143 707.369 557.811 706.45 574.445C705.613 591.482 711.704 609.126 715.408 625.074C727.15 676.625 723.383 726.166 716.894 778.052C710.741 827.007 697.639 874.916 672.23 917.529C642.258 967.761 593.052 1007.97 537.671 1028.6C491.625 1045.79 402.149 1061.03 368.305 1013.22C362.466 998.131 362.403 980.864 364.663 964.601C377.954 869.202 451.104 771.292 538.382 731.608C585.14 710.343 661.388 677.672 636.753 612.684C628.905 592.193 617.916 574.508 615.823 553.096C615.635 551.15 615.447 549.203 615.258 547.131C611.742 496.899 640.981 449.221 688.325 432.016C703.813 426.167 720.373 423.702 736.893 424.785C753.413 425.868 769.509 430.474 784.101 438.295C789.281 441.053 793.918 444.726 797.789 449.137C798.054 449.436 798.292 449.758 798.5 450.1C798.795 450.841 799.032 451.604 799.212 452.381C800.368 457.23 800.539 462.262 799.714 467.179Z" fill="#4169E1"/>
<path d="M819.158 845.426C844.442 839.586 866.628 821.482 872.969 795.026C878.872 770.517 869.537 745.359 855.074 725.643C841.658 707.434 813.717 692.155 815.914 666.328C816.626 657.956 820.77 650.63 826.17 644.142C828.116 641.881 830.126 639.788 832.323 637.653" stroke="black" stroke-width="4.65" stroke-miterlimit="10"/>
<path d="M767.022 642.258L765.85 727.715" stroke="black" stroke-width="4.65" stroke-miterlimit="10"/>
<path d="M627.628 599.414C619.821 578.903 608.791 561.217 606.698 539.827C606.489 537.859 606.3 535.892 606.154 533.799C602.617 483.567 631.877 435.909 679.199 418.684C694.692 412.84 711.255 410.377 727.777 411.46C744.299 412.543 760.399 417.147 774.996 424.963C780.163 427.731 784.786 431.411 788.642 435.825L789.626 437.018C793.044 441.195 795.528 446.055 796.91 451.272C798.293 456.489 798.543 461.941 797.642 467.262C796.119 475.024 792.45 482.202 787.052 487.983C781.136 494.44 774.26 499.946 766.666 504.308C752.392 512.806 736.527 519.19 724.492 530.659C712.477 542.238 705.31 557.949 704.441 574.612C703.583 591.649 709.694 609.272 713.336 625.263C725.078 676.813 721.332 726.334 714.843 778.198C708.69 827.154 695.609 875.083 670.158 917.697C640.186 967.929 591 1008.16 535.599 1028.77C488.653 1046.27 396.603 1061.76 364.266 1010.54C353.403 993.359 352.691 971.613 355.496 951.478C368.787 856.1 441.979 758.147 529.215 718.485C576.056 696.969 652.304 664.381 627.628 599.414Z" stroke="black" stroke-width="4.65" stroke-miterlimit="10"/>
<path d="M807.354 541.417C811.85 541.417 815.496 537.772 815.496 533.275C815.496 528.779 811.85 525.134 807.354 525.134C802.857 525.134 799.212 528.779 799.212 533.275C799.212 537.772 802.857 541.417 807.354 541.417Z" fill="black"/>
<path d="M805.449 507.029C805.449 507.029 777.884 519.462 786.612 543.636" stroke="black" stroke-width="4.65" stroke-miterlimit="10"/>
<path d="M830.921 638.051C837.828 635.539 845.195 627.586 850.218 622.374C855.773 616.446 860.736 609.99 865.037 603.098C877.148 583.719 883.473 561.285 883.269 538.434C883.066 515.583 876.341 493.266 863.886 474.106C855.263 460.795 843.772 448.99 829.372 442.293C817.37 436.638 803.939 434.741 790.84 436.851C798.16 442.827 804.724 449.673 810.389 457.237C818.921 468.434 824.893 481.365 827.886 495.12C828.347 497.527 828.744 499.913 829.163 502.341C831.256 515.276 832.428 528.378 838.77 538.968C842.004 544.316 846.467 548.814 851.788 552.092C853.04 552.767 854.206 553.589 855.263 554.54C861.018 560.317 845.844 561.971 842.705 563.875C834.647 568.584 837.64 582.105 836.572 589.933C835.285 599.07 832.551 607.944 828.472 616.221C827.028 619.162 825.384 622.001 823.554 624.719C815.182 637.13 802.624 646.842 786.842 646.925C779.82 646.863 772.876 645.441 766.394 642.739C755.275 638.222 745.332 631.228 737.322 622.291" stroke="black" stroke-width="4.65" stroke-miterlimit="10"/>
<path d="M815.768 594.747C815.768 594.747 796.784 605.568 788.559 580.661" stroke="black" stroke-width="4.65" stroke-miterlimit="10"/>
<path d="M1089.87 507.553L1137.17 484.697C1141.49 482.612 1145.27 479.544 1148.2 475.739L1170.28 447.086C1172.82 443.607 1173.91 439.275 1173.32 435.008C1172.72 430.74 1170.49 426.873 1167.09 424.225C1163.69 421.577 1159.39 420.356 1155.11 420.822C1150.82 421.288 1146.89 423.404 1144.14 426.721L1140.1 431.43L1148.62 411.275C1149.2 409.889 1149.47 408.395 1149.42 406.895C1149.37 405.394 1149 403.922 1148.33 402.578C1147.66 401.233 1146.71 400.049 1145.54 399.105C1144.38 398.16 1143.02 397.478 1141.56 397.105L1128.11 398.884L1170.18 341.431C1176.14 333.289 1170.34 323.452 1161.61 320.669C1151.57 317.466 1142.28 324.08 1136.04 331.406C1110.38 361.629 1090.93 396.582 1072.87 431.744C1066.8 443.563 1060.95 455.479 1055.31 467.493" stroke="black" stroke-width="4.65" stroke-linejoin="round"/>
<path d="M1128.13 398.884C1128.13 398.884 1100.69 433.021 1140.12 431.43" stroke="black" stroke-width="4.65" stroke-miterlimit="10"/>
<path d="M1051.73 1124.78C1051.73 1124.78 1031.39 1157.78 1055.08 1165.88C1078.77 1173.98 1091.73 1135.89 1091.73 1135.89H1046" stroke="black" stroke-width="4.65" stroke-miterlimit="10"/>
<path d="M1059.02 1166.85H964.664" stroke="black" stroke-width="4.65" stroke-miterlimit="10"/>
<path d="M1154.27 942.624C1154.24 944.951 1153.8 947.254 1152.97 949.427L1143.51 974.061H1103.18L1117.18 936.011C1118.73 931.791 1121.71 928.252 1125.61 926.014C1129.51 923.776 1134.07 922.982 1138.5 923.771C1142.92 924.56 1146.93 926.882 1149.81 930.329C1152.7 933.777 1154.27 938.13 1154.27 942.624V942.624Z" stroke="black" stroke-width="4.65" stroke-miterlimit="10"/>
<path d="M957.338 974.061L934.315 1036.45L970.043 938.857C971.696 934.344 974.698 930.45 978.641 927.702C982.583 924.953 987.276 923.484 992.082 923.494H1135.12" stroke="black" stroke-width="4.65" stroke-miterlimit="10"/>
<path d="M1080.28 1036.45L1103.18 974.061" stroke="black" stroke-width="4.65" stroke-miterlimit="10"/>
<path d="M354.952 982.894C291.848 1152.78 320.773 1321.62 320.773 1321.62C416.088 1374.66 551.233 1370.06 648.035 1323.45C682.276 1306.91 719.197 1282 734.141 1245.5C745.108 1218.77 756.515 1192.26 765.912 1165.15" stroke="black" stroke-width="4.65" stroke-miterlimit="10"/>
<path d="M300.534 1512.97H855.87" stroke="black" stroke-width="4.65" stroke-miterlimit="10"/>
<path d="M790.693 1036.52L784.708 1056.76" stroke="black" stroke-width="4.65" stroke-miterlimit="10"/>
<path d="M388.984 1410.85C388.984 1410.85 364.538 1367.23 356.584 1338.2" stroke="black" stroke-width="4.65" stroke-miterlimit="10"/>
<path d="M509.646 178.219V612.265H346.559C351.931 595.089 356.431 577.717 360.059 560.15C371.194 506.067 374.501 450.225 372.763 393.819C369.519 285.59 413.681 226.002 472.348 194.293C484.281 187.843 496.762 182.464 509.646 178.219Z" stroke="#CCDDE2" stroke-width="4.65" stroke-miterlimit="10"/>
<path d="M472.348 194.293V560.15H359.996C371.131 506.066 374.438 450.225 372.701 393.819C369.519 285.59 413.681 226.044 472.348 194.293Z" stroke="#CCDDE2" stroke-width="4.65" stroke-miterlimit="10"/>
</g>
<defs>
<clipPath id="clip0">
<rect width="2093" height="2093" fill="white"/>
</clipPath>
</defs>
</svg>
